<?xml version="1.0" standalone="no"?>
<!DOCTYPE svg PUBLIC "-//W3C//DTD SVG 20010904//EN"
 "http://www.w3.org/TR/2001/REC-SVG-20010904/DTD/svg10.dtd">
<svg version="1.0" xmlns="http://www.w3.org/2000/svg"
 width="500.000000pt" height="500.000000pt" viewBox="0 0 500.000000 500.000000"
 preserveAspectRatio="xMidYMid meet">

<g transform="translate(0.000000,500.000000) scale(0.100000,-0.100000)"
fill="#000000" stroke="none">
<path d="M2057 4770 c-8 -31 -127 -79 -127 -51 0 9 -136 -21 -167 -37 -11 -6
-25 -18 -32 -26 -8 -10 -22 -14 -35 -10 -14 3 -32 -3 -50 -17 -20 -15 -30 -19
-38 -11 -8 8 -7 16 2 27 18 22 0 38 -34 29 -15 -3 -48 -24 -73 -45 -26 -21
-59 -41 -75 -44 -15 -4 -33 -16 -39 -28 -16 -31 -71 -87 -85 -87 -7 0 -14 5
-16 10 -2 6 -27 1 -60 -12 -41 -16 -58 -28 -58 -41 0 -10 -4 -15 -10 -12 -6 4
-10 -6 -10 -24 0 -20 -6 -32 -19 -36 -13 -4 -18 -14 -17 -38 1 -36 -17 -53
-22 -22 -2 11 -8 25 -14 30 -6 7 -7 -3 -3 -27 7 -36 6 -37 -27 -40 -36 -3 -39
-13 -23 -72 l8 -29 -33 19 c-41 24 -79 74 -56 74 18 0 20 8 8 28 -5 7 -16 10
-25 6 -13 -5 -17 -19 -17 -64 0 -39 -5 -62 -15 -70 -15 -13 -12 -55 6 -74 25
-27 -20 -85 -77 -98 -29 -7 -56 8 -32 17 10 4 22 22 28 41 8 23 18 34 31 34
25 0 24 15 -3 34 -31 22 -35 20 -43 -13 -3 -16 -15 -37 -26 -47 -18 -17 -20
-16 -43 5 -20 19 -24 20 -29 7 -4 -9 -13 -16 -22 -16 -8 0 -15 -6 -15 -13 0
-7 -13 -28 -28 -47 -49 -59 -56 -79 -38 -99 21 -23 20 -28 -4 -34 -11 -3 -20
-10 -20 -16 0 -19 39 -12 52 9 17 27 38 25 38 -4 0 -25 -10 -31 -106 -61 -59
-19 -94 -47 -94 -75 0 -23 16 -35 23 -18 2 7 8 10 12 6 4 -4 -7 -22 -24 -40
-36 -36 -55 -68 -64 -109 -6 -24 -3 -27 24 -33 37 -7 29 -26 -11 -26 -37 0
-83 -46 -102 -102 l-15 -43 29 -1 c23 -1 27 2 23 17 -8 23 13 35 22 12 3 -10
15 -28 26 -40 26 -29 12 -78 -23 -78 -13 0 -25 -6 -28 -13 -7 -23 -22 -12 -22
17 0 17 -5 33 -10 36 -6 3 -10 -5 -10 -19 0 -13 -3 -32 -6 -41 -10 -25 -111
-86 -130 -78 -9 3 -15 2 -13 -3 3 -5 12 -25 21 -44 9 -19 24 -54 34 -78 9 -23
20 -40 23 -37 3 3 8 27 11 53 4 39 8 46 24 44 25 -5 65 35 72 72 4 25 13 34
41 43 60 18 87 -4 36 -29 -22 -10 -29 -21 -31 -51 -3 -31 -7 -37 -27 -37 -25
0 -85 -44 -74 -54 3 -3 16 3 29 14 28 24 40 25 40 3 0 -9 7 -25 17 -35 13 -15
14 -18 2 -18 -8 0 -20 5 -26 11 -16 16 -33 2 -33 -26 0 -30 -16 -41 -23 -15
-7 28 -29 25 -26 -2 4 -30 -9 -52 -24 -40 -7 5 -26 12 -43 15 l-32 6 10 -39
10 -39 29 21 c16 12 31 19 35 16 13 -13 -18 -48 -59 -66 -44 -20 -100 -72 -78
-72 7 0 25 9 39 21 l27 21 3 -21 c3 -17 6 -19 22 -9 47 30 34 -20 -22 -81
l-31 -34 -19 26 c-11 15 -27 27 -35 27 -13 0 -14 -8 -9 -41 9 -57 32 -98 61
-109 14 -5 25 -16 25 -25 0 -17 37 -20 60 -4 11 8 7 9 -17 4 -37 -7 -43 7 -19
41 13 16 18 17 35 6 12 -7 21 -10 21 -6 0 14 -25 50 -47 67 -12 10 -23 23 -23
28 0 14 33 10 54 -6 28 -21 34 -19 38 12 2 14 9 29 17 31 11 4 13 -3 7 -34 -3
-22 -9 -49 -12 -61 -4 -14 1 -28 17 -44 l22 -22 9 22 c7 19 11 21 23 11 8 -7
15 -18 15 -25 0 -18 -48 -55 -71 -55 -11 0 -19 -7 -19 -16 0 -9 -10 -32 -21
-51 l-22 -35 32 -28 c36 -33 38 -41 13 -63 -26 -23 -52 -22 -52 3 0 11 -4 20
-10 20 -18 0 -10 -27 19 -64 l30 -37 22 30 c31 42 42 44 79 11 40 -36 32 -53
-24 -48 l-41 3 -3 -48 c-3 -42 1 -52 23 -73 26 -24 45 -31 45 -16 0 5 -11 19
-25 32 -30 28 -32 40 -5 40 13 0 20 7 20 19 0 12 11 23 29 29 25 9 34 7 52 -9
20 -17 21 -22 9 -44 -10 -19 -11 -31 -2 -49 9 -20 8 -25 -4 -30 -10 -4 -20 5
-30 30 -8 19 -12 39 -9 44 3 5 -3 8 -14 7 -15 -1 -17 -4 -10 -14 6 -6 17 -36
24 -65 12 -45 12 -54 0 -68 -18 -20 -19 -46 -4 -56 8 -4 7 -9 -2 -15 -24 -15
-39 -10 -39 15 0 19 -4 22 -24 19 -16 -3 -36 3 -55 17 -30 21 -31 21 -31 1 0
-31 -18 -35 -40 -9 -17 20 -19 21 -20 5 0 -10 7 -31 15 -48 12 -23 13 -34 4
-50 -8 -17 -8 -23 2 -30 19 -11 29 -2 29 27 0 59 49 84 95 50 17 -12 17 -16 5
-31 -8 -10 -22 -14 -34 -11 -20 5 -21 2 -18 -60 3 -45 8 -67 18 -71 30 -11 74
52 83 122 9 59 35 54 39 -7 3 -49 9 -57 30 -36 14 14 17 11 26 -19 5 -17 2
-22 -13 -25 -18 -3 -17 -7 15 -58 20 -33 39 -82 47 -120 l13 -65 49 -5 c45 -5
50 -7 50 -30 0 -20 -6 -26 -30 -31 -39 -7 -95 -31 -95 -41 0 -23 25 -63 69
-112 28 -31 53 -67 57 -81 4 -15 16 -28 30 -31 41 -10 44 6 6 40 -33 31 -35
36 -24 60 12 28 32 35 32 12 0 -17 49 -76 50 -60 0 6 -13 31 -30 55 -52 77
-37 93 26 26 56 -58 74 -87 74 -119 0 -25 -3 -27 -27 -22 -28 5 -28 5 -28 -50
0 -53 2 -56 29 -66 21 -7 32 -7 37 1 5 8 16 5 38 -10 36 -26 38 -32 11 -56
-21 -19 -26 -35 -10 -35 5 0 16 13 25 30 21 41 35 38 35 -8 0 -47 13 -64 69
-93 l44 -22 26 31 c27 34 58 44 47 16 -3 -9 -6 -34 -6 -56 0 -33 -3 -39 -16
-34 -25 10 -34 -3 -22 -29 9 -19 15 -22 29 -15 10 6 19 22 21 37 2 23 7 27 28
25 14 -2 39 -4 55 -6 17 -2 35 -4 41 -4 11 -2 16 -73 8 -104 -6 -21 -44 -25
-44 -5 0 7 5 18 12 25 9 9 9 12 0 12 -18 0 -70 -52 -77 -78 -6 -22 -5 -23 49
-20 43 2 56 7 60 22 2 10 9 15 15 11 6 -3 11 1 11 10 0 8 7 18 15 21 17 7 20
40 5 49 -21 13 -8 32 30 45 22 7 40 17 40 22 0 5 -16 18 -35 29 -31 18 -40 35
-36 62 2 15 -17 6 -32 -16 -14 -18 -18 -20 -26 -7 -7 9 -6 19 1 27 8 10 4 13
-16 13 -21 0 -26 5 -26 25 0 31 -28 23 -36 -11 -3 -13 -9 -24 -13 -24 -9 0
-51 114 -51 139 0 11 4 21 9 21 5 0 11 11 13 24 4 19 0 25 -19 29 -22 4 -23 2
-17 -28 5 -26 1 -37 -17 -54 -17 -16 -25 -18 -28 -9 -2 7 -10 21 -19 30 -8 10
-12 26 -9 37 2 10 1 25 -4 32 -8 12 -12 11 -23 -3 -14 -19 -36 -24 -36 -9 0 6
4 12 9 15 9 6 -10 76 -21 76 -5 0 -8 -13 -8 -30 0 -16 -4 -30 -10 -30 -18 0
-28 35 -23 83 5 43 4 47 -15 47 -24 0 -52 25 -52 46 0 8 8 14 18 14 25 0 31 7
25 31 -11 43 -109 65 -149 34 -18 -14 -18 -16 -1 -29 28 -21 3 -29 -34 -11
-20 11 -29 21 -25 31 3 9 6 23 6 33 0 9 6 26 14 36 13 18 15 18 30 2 13 -13
27 -16 59 -11 65 10 81 29 51 58 -14 14 -14 17 0 22 8 3 21 3 28 -1 7 -4 1 3
-14 15 -16 12 -28 28 -28 36 0 18 5 18 36 -2 42 -28 37 -8 -6 26 -33 26 -41
38 -37 57 4 22 2 24 -21 18 -20 -5 -23 -3 -18 10 4 12 0 19 -14 22 -23 6 -27
23 -5 23 8 0 15 5 15 11 0 6 -9 8 -20 4 -22 -7 -26 6 -10 35 13 25 -7 75 -46
115 -25 26 -29 38 -29 86 0 40 -4 55 -12 52 -12 -5 -27 39 -54 152 -15 61 -15
61 -34 45 -12 -10 -19 -10 -27 -2 -8 8 -4 14 15 21 31 12 34 31 11 66 -10 15
-14 34 -10 48 3 12 -2 45 -11 73 -20 65 -11 264 13 264 12 0 13 12 8 63 -5 54
-4 65 10 70 14 5 15 11 6 27 -9 16 -5 33 16 83 15 34 27 78 28 97 1 26 9 42
33 63 24 21 38 48 54 100 12 40 28 84 35 100 14 26 13 27 -9 27 -14 0 -36 9
-51 21 -35 28 -33 9 4 -29 36 -38 37 -44 6 -58 -18 -9 -25 -8 -34 5 -10 13
-11 11 -6 -10 11 -51 -37 -48 -55 3 -9 26 -8 32 10 47 12 10 23 33 26 58 4 33
13 48 38 67 31 24 32 28 28 73 -6 54 -18 74 -38 67 -26 -10 -35 6 -15 26 23
23 40 26 40 8 0 -7 4 -20 10 -28 7 -12 13 -9 30 13 16 20 30 27 56 27 40 0 38
-2 18 38 -16 33 -6 72 18 72 6 0 28 15 48 34 l38 34 -24 23 c-26 24 -30 49
-14 80 13 23 45 27 36 4 -4 -11 1 -15 19 -15 29 0 31 -7 8 -32 -9 -10 -13 -21
-10 -24 9 -10 117 84 130 113 5 12 18 23 27 23 23 0 45 26 30 35 -17 10 6 32
48 46 36 12 36 13 12 20 -45 13 -55 9 -67 -21 -14 -38 -36 -40 -27 -2 16 68
60 92 144 78 32 -5 44 -2 59 13 17 17 18 21 5 32 -20 16 -18 29 5 29 10 0 25
-10 33 -21 l14 -21 61 30 c56 29 103 71 103 94 0 6 -9 12 -20 15 -27 7 -24 24
9 50 28 22 29 22 45 4 10 -10 21 -32 26 -47 l8 -29 1 33 c1 27 5 32 26 32 14
0 28 7 32 15 9 24 -5 30 -26 11 -11 -10 -21 -13 -25 -7 -4 5 -2 12 4 16 15 9
12 25 -5 25 -8 0 -15 5 -15 10 0 6 14 10 32 10 50 0 20 17 -39 22 -46 4 -53 3
-53 -13 0 -28 -19 -33 -29 -7 -11 28 -8 31 51 61 38 19 48 21 52 10 3 -8 26
-23 51 -34 25 -11 45 -24 45 -29 0 -6 7 -10 15 -10 7 0 18 -8 24 -17 8 -16 19
-9 84 54 70 68 113 93 136 78 7 -4 2 -18 -14 -39 -33 -43 -32 -56 5 -56 25 0
30 4 30 24 0 28 24 51 45 42 8 -3 15 -14 15 -25 0 -25 16 -36 24 -15 4 10 16
14 38 12 25 -2 33 1 36 15 3 14 -1 18 -20 15 -17 -2 -23 2 -22 15 2 21 -4 22
-28 0 -17 -15 -18 -15 -18 4 0 12 -7 23 -15 27 -8 3 -15 10 -15 16 0 15 53 12
96 -6 26 -11 54 -14 86 -11 53 7 55 5 32 -17 -8 -9 -11 -16 -5 -16 6 0 18 14
26 31 14 25 21 29 43 25 15 -3 59 -10 98 -16 111 -15 169 -42 139 -64 -13 -9
-14 -17 -6 -39 8 -20 7 -27 -2 -27 -7 0 -12 -16 -13 -41 l0 -40 18 23 c10 13
18 29 18 36 0 18 25 15 62 -8 39 -24 49 -25 42 -6 -3 9 3 17 15 21 12 3 21 11
21 16 0 20 -30 82 -37 75 -4 -3 -1 -12 5 -18 7 -7 12 -22 12 -34 0 -20 -4 -21
-47 -16 -27 2 -50 6 -53 9 -2 2 -5 22 -6 43 -2 38 0 40 26 40 18 0 34 8 43 20
13 19 17 19 43 6 16 -7 49 -20 74 -27 57 -18 62 -44 7 -44 l-37 0 0 -52 0 -52
28 15 c51 26 122 12 122 -24 0 -42 -87 -92 -105 -61 -8 11 -55 -27 -55 -44 0
-6 29 -7 76 -4 42 4 83 3 93 -3 15 -8 20 -3 30 29 14 49 14 54 -3 48 -19 -8
-32 43 -14 54 17 11 75 11 82 0 3 -4 1 -21 -4 -37 -5 -16 -13 -46 -18 -66 -10
-36 -9 -38 13 -38 13 0 37 -11 53 -25 23 -19 35 -23 58 -16 25 6 30 13 34 53
3 24 14 57 23 72 16 23 23 26 50 21 37 -8 62 -29 53 -44 -4 -7 -15 -7 -30 -1
-13 5 -27 6 -30 3 -12 -13 -6 -71 10 -83 13 -11 22 -6 59 35 33 35 49 46 65
42 22 -6 26 3 8 21 -8 8 -8 12 -1 12 6 0 16 14 22 32 l11 31 26 -24 26 -24
-27 -3 c-23 -3 -26 -7 -20 -25 19 -63 19 -64 -23 -70 -40 -7 -81 -36 -45 -33
13 1 19 -8 23 -32 5 -31 6 -32 25 -18 11 9 30 16 43 16 19 0 22 5 22 45 l0 45
40 -37 c22 -21 40 -45 40 -54 0 -10 11 -20 26 -23 14 -4 45 -25 68 -46 31 -29
52 -40 75 -40 17 0 31 -4 31 -9 0 -5 14 -11 32 -15 17 -3 52 -19 77 -35 25
-16 56 -32 69 -36 17 -5 21 -11 16 -27 -6 -19 -3 -20 35 -13 25 4 41 3 41 -3
0 -5 11 -13 25 -16 18 -5 25 -13 25 -30 0 -13 17 -49 38 -80 34 -53 39 -57 68
-53 28 5 33 2 52 -38 18 -37 24 -42 46 -38 29 6 34 27 10 41 -22 12 -9 32 22
32 28 0 29 2 9 41 -18 33 -13 49 16 49 10 0 19 5 19 11 0 8 5 8 15 -1 8 -7 15
-23 15 -36 0 -14 8 -25 20 -29 12 -4 24 -22 32 -47 8 -27 22 -47 42 -59 17
-10 37 -23 44 -29 7 -6 17 -10 23 -8 6 2 -9 17 -33 34 -24 17 -51 46 -60 65
-15 31 -16 35 -1 51 15 17 15 18 0 18 -13 0 -17 9 -17 34 0 65 -23 84 -61 50
-16 -14 -21 -14 -53 1 -41 19 -86 68 -86 92 0 14 2 14 18 0 10 -10 24 -17 30
-17 20 0 13 18 -14 37 -61 43 -85 67 -82 82 2 10 -9 22 -33 33 -25 11 -51 37
-78 76 -48 71 -57 78 -64 53 -6 -25 -84 -34 -97 -12 -7 13 -13 13 -35 3 -28
-13 -26 -32 4 -32 9 0 26 -6 36 -14 17 -12 18 -15 3 -30 -9 -8 -18 -21 -21
-28 -3 -10 -9 -9 -23 4 -12 11 -28 15 -42 11 -19 -5 -22 -1 -22 25 0 29 -2 30
-34 25 -18 -3 -36 -1 -40 5 -6 11 44 32 76 32 19 0 38 35 38 70 0 10 -12 32
-26 49 -14 17 -23 35 -19 41 9 15 -7 12 -29 -5 -24 -18 -36 -19 -36 -2 0 7 -6
22 -14 33 -12 15 -17 17 -27 7 -29 -29 -90 1 -119 56 -12 24 -12 24 26 18 l39
-5 -30 13 c-16 8 -49 14 -72 15 l-42 0 52 -52 c32 -32 47 -53 39 -56 -8 -2
-24 5 -36 17 -27 26 -35 26 -52 4 -13 -17 -15 -17 -33 4 -13 16 -21 19 -29 11
-9 -9 -17 -7 -32 7 -11 10 -17 22 -14 26 7 12 -5 49 -16 49 -4 0 -6 -9 -3 -20
7 -26 1 -25 -47 6 -27 18 -45 24 -61 19 -22 -7 -22 -8 12 -35 43 -36 33 -47
-26 -27 l-47 15 26 -27 c32 -33 33 -57 5 -72 -18 -9 -24 -8 -31 5 -6 11 -23
16 -58 16 -36 0 -50 4 -50 14 0 8 -16 23 -35 35 -41 24 -45 41 -10 41 15 0 31
-10 42 -26 17 -26 17 -26 25 -5 6 18 11 20 27 11 18 -9 20 -7 18 20 -2 30 -3
31 -47 28 -42 -2 -45 -1 -48 25 -3 22 1 27 19 27 17 0 19 3 9 14 -6 8 -11 23
-10 33 4 34 0 36 -25 13 -15 -14 -25 -35 -25 -52 0 -34 -17 -37 -30 -5 -5 12
-23 38 -40 57 l-30 34 0 -42 c0 -38 2 -42 24 -42 32 0 41 -16 22 -36 -9 -8
-16 -26 -16 -39 0 -40 -19 -38 -26 2 -3 21 -15 53 -27 71 -20 35 -23 35 -84
11 -26 -11 -35 -11 -45 -1 -10 10 -10 15 1 21 10 7 8 10 -9 16 -33 11 -99 8
-114 -4 -16 -13 -26 -4 -26 22 0 17 -4 18 -37 11 -21 -4 -56 -8 -78 -8 -29 -1
-45 -7 -58 -23 -10 -13 -26 -23 -34 -23 -14 0 -14 3 2 20 21 24 20 25 -22 33
-39 8 -63 -14 -42 -39 25 -30 -10 -34 -64 -5 -33 17 -66 26 -92 25 -38 -1 -41
1 -37 23 5 28 -14 31 -21 3z m1208 -240 c14 -15 16 -23 7 -32 -17 -17 -62 6
-62 32 0 26 31 26 55 0z m-207 -58 c4 0 12 -14 19 -31 7 -17 9 -31 4 -31 -5 0
-18 -16 -30 -35 -23 -40 -61 -49 -61 -15 0 13 7 20 20 20 23 0 26 22 5 40 -18
15 -45 6 -45 -15 0 -8 -4 -15 -10 -15 -5 0 -10 14 -10 30 0 23 4 30 20 30 13
0 20 7 20 19 0 17 4 18 30 11 17 -5 34 -9 38 -8z m532 6 c0 -6 -8 -20 -17 -30
-22 -25 -9 -36 47 -40 43 -3 45 -5 48 -35 3 -32 3 -32 -27 -22 -20 7 -36 7
-49 0 -22 -12 -32 -6 -32 20 0 19 -8 19 -82 4 -45 -8 7 70 64 98 40 20 48 21
48 5z m-2310 -63 c14 9 13 -18 -2 -37 -15 -18 -59 -48 -70 -48 -16 0 -7 36 12
48 11 7 20 22 20 33 0 18 3 19 15 9 8 -6 19 -9 25 -5z m-220 -283 c-1 -27 -26
-66 -34 -53 -12 19 -26 12 -26 -14 0 -31 -21 -32 -60 -3 -34 25 -36 33 -15 54
11 12 18 12 34 2 16 -10 24 -8 53 14 35 27 48 27 48 0z m2880 -27 c0 -11 7
-14 25 -9 14 3 38 1 53 -5 16 -7 38 -13 50 -14 52 -4 7 -49 -60 -61 -31 -6
-37 -4 -32 9 4 9 1 15 -9 15 -19 0 -34 18 -42 53 -5 17 -3 27 4 27 6 0 11 -7
11 -15z m-3191 -89 c26 -28 21 -46 -14 -46 -13 0 -27 -5 -30 -10 -4 -6 -11 -8
-16 -4 -6 4 -6 10 1 19 6 7 10 17 9 21 -3 13 12 44 20 44 4 0 18 -11 30 -24z
m-111 -291 c13 -28 0 -42 -18 -20 -7 8 -19 15 -26 15 -15 0 -29 -41 -22 -62 5
-15 -49 -51 -63 -43 -14 10 0 25 23 25 16 0 19 4 14 23 -23 80 -21 83 50 86
24 1 33 -5 42 -24z m-55 -242 c-31 -100 -44 -169 -37 -198 6 -23 6 -23 50 -8
25 8 48 12 51 9 4 -4 -8 -20 -26 -37 -33 -30 -34 -30 -72 -15 -22 9 -58 16
-80 16 -49 0 -49 17 0 42 42 21 51 31 26 26 -27 -4 -31 30 -10 73 11 20 15 43
11 64 -6 30 -4 33 13 28 15 -4 24 4 40 36 14 26 28 41 40 41 18 0 18 -4 -6
-77z m27 -312 c0 -6 -5 -13 -10 -16 -6 -4 -8 -15 -5 -26 5 -15 1 -19 -19 -19
-30 0 -33 16 -10 48 15 22 44 30 44 13z m-132 -159 c4 -25 -23 -62 -43 -62 -7
0 -15 15 -19 32 -5 25 -2 36 11 46 25 18 47 11 51 -16z m62 -88 c0 -1 -7 -21
-15 -45 -19 -52 -44 -82 -63 -74 -13 5 -14 -7 -9 -74 l6 -80 -24 11 c-22 10
-24 16 -19 43 4 23 -1 45 -16 76 -39 75 -23 168 20 121 22 -23 40 -29 40 -13
0 6 -4 13 -10 16 -24 15 -6 24 40 22 27 -1 50 -3 50 -3z m-60 -500 c0 -8 -14
-17 -31 -21 -18 -3 -34 -14 -38 -27 l-8 -20 -12 21 c-19 37 -14 50 20 45 25
-4 31 0 36 17 4 17 8 19 19 10 8 -6 14 -18 14 -25z m-11 -155 c13 -28 21 -52
19 -54 -2 -2 -17 5 -34 15 -26 17 -29 24 -26 55 2 19 8 35 12 35 4 0 17 -23
29 -51z m88 -83 c-29 -37 -36 -76 -13 -76 7 0 20 10 29 23 8 12 18 19 22 15
11 -11 -25 -88 -41 -88 -20 0 -44 29 -38 45 4 9 0 15 -10 15 -20 0 -21 29 -1
36 9 4 15 19 15 36 0 23 4 29 15 24 9 -3 18 1 22 10 4 10 9 12 16 5 7 -7 2
-21 -16 -45z m93 -315 c0 -17 6 -31 16 -35 15 -6 15 -8 1 -30 -19 -29 -6 -46
35 -46 15 0 27 -3 26 -7 -2 -5 -1 -8 2 -9 22 -3 51 -28 46 -40 -3 -8 3 -29 14
-47 26 -42 26 -93 1 -107 -27 -14 -25 -15 -50 34 -15 31 -20 53 -15 71 6 24 4
26 -17 23 -13 -1 -24 -10 -24 -18 -1 -31 -55 5 -55 37 0 16 27 17 32 1 5 -15
28 -1 28 16 0 8 -13 19 -30 26 -32 13 -38 36 -20 71 9 16 7 19 -11 19 -16 0
-19 4 -14 18 4 9 10 25 12 35 8 27 23 20 23 -12z m50 -261 c0 -5 -5 -21 -12
-35 -12 -28 -37 -27 -70 3 -25 21 -22 30 10 35 51 8 72 7 72 -3z"/>
<path d="M3010 4780 c-13 -8 -12 -10 3 -10 9 0 17 5 17 10 0 12 -1 12 -20 0z"/>
<path d="M3080 4750 c6 -11 20 -20 32 -20 20 0 21 1 3 20 -10 11 -24 20 -32
20 -11 0 -11 -4 -3 -20z"/>
<path d="M2160 4542 c0 -17 25 -32 52 -32 30 0 37 -17 16 -39 -19 -21 11 -3
40 22 30 28 28 46 -5 46 -16 0 -45 2 -65 5 -21 3 -38 2 -38 -2z"/>
<path d="M2403 4542 c-26 -4 -20 -32 7 -32 9 0 22 -10 28 -22 l11 -23 0 26 c1
33 -19 56 -46 51z"/>
<path d="M2030 4502 c-25 -7 -51 -16 -59 -18 -12 -4 -12 -8 2 -22 16 -15 19
-15 52 2 34 19 62 44 54 49 -2 2 -24 -3 -49 -11z"/>
<path d="M1892 4460 c-6 -11 -12 -29 -12 -40 0 -16 7 -20 33 -20 45 0 49 6 25
46 -23 39 -29 41 -46 14z"/>
<path d="M2125 4447 c-12 -10 -14 -16 -7 -21 7 -4 12 -17 12 -29 1 -21 2 -20
18 6 9 15 20 27 24 27 5 0 8 7 8 15 0 19 -30 19 -55 2z"/>
<path d="M2360 4427 c0 -30 6 -36 31 -30 28 8 21 47 -8 51 -18 3 -23 -1 -23
-21z"/>
<path d="M2062 4405 c-10 -21 -9 -25 4 -25 18 0 30 28 17 41 -6 6 -14 0 -21
-16z"/>
<path d="M1072 4398 c-14 -14 -16 -38 -4 -38 10 0 42 33 42 43 0 11 -25 8 -38
-5z"/>
<path d="M1750 4372 c0 -4 11 -23 25 -42 30 -41 32 -54 5 -40 -12 6 -40 8 -71
4 -47 -6 -50 -8 -47 -33 4 -34 41 -39 106 -16 44 16 47 20 49 56 2 29 -1 39
-12 39 -8 0 -20 9 -27 20 -13 20 -28 27 -28 12z"/>
<path d="M1576 4263 c-3 -18 -9 -49 -12 -68 -5 -27 -11 -35 -28 -35 -12 0 -27
-5 -33 -11 -8 -8 -17 -8 -31 0 -11 6 -40 11 -64 10 -24 0 -36 -3 -28 -6 8 -3
32 -16 52 -30 l37 -25 76 42 c41 23 73 45 71 49 -3 4 4 20 14 36 22 34 13 60
-24 67 -21 4 -25 0 -30 -29z"/>
<path d="M1283 4168 c-20 -23 -47 -88 -39 -96 8 -7 26 9 26 24 0 8 9 14 20 14
17 0 20 7 20 40 0 22 -1 40 -3 40 -2 0 -13 -10 -24 -22z"/>
<path d="M1225 4150 c0 -16 3 -30 8 -30 4 0 7 14 7 30 0 17 -3 30 -7 30 -5 0
-8 -13 -8 -30z"/>
<path d="M4201 4046 c-9 -11 -9 -16 0 -21 10 -7 28 10 29 28 0 12 -17 8 -29
-7z"/>
<path d="M1243 4028 c1 -8 -9 -13 -28 -13 -16 0 -41 -8 -55 -18 -20 -14 -23
-21 -14 -34 29 -46 119 -33 119 17 0 22 4 25 33 22 42 -4 41 4 -4 23 -44 18
-55 19 -51 3z"/>
<path d="M1096 3998 c-9 -12 -16 -30 -16 -38 0 -9 -14 -20 -32 -25 -17 -6 -34
-16 -36 -23 -3 -11 0 -12 16 -3 17 9 26 7 48 -14 33 -31 24 -43 -18 -27 -35
13 -54 3 -45 -22 4 -10 19 -16 42 -16 24 0 35 -4 35 -15 0 -8 5 -15 10 -15 6
0 10 24 10 54 0 30 3 61 6 70 4 11 1 16 -10 16 -21 0 -21 28 1 52 9 10 14 21
11 24 -3 3 -13 -5 -22 -18z"/>
<path d="M932 3799 l-21 -34 25 -13 c16 -8 23 -19 20 -28 -4 -10 2 -14 21 -14
21 0 23 2 13 15 -6 8 -17 36 -24 61 l-12 47 -22 -34z"/>
<path d="M4267 3775 c4 -17 12 -25 25 -25 24 0 19 18 -9 37 -19 13 -20 12 -16
-12z"/>
<path d="M867 3748 c-8 -32 0 -58 19 -58 17 0 17 16 0 55 l-13 30 -6 -27z"/>
<path d="M4178 3712 c11 -23 21 -31 31 -27 30 12 35 10 36 -17 1 -14 7 -33 14
-41 9 -12 10 -21 1 -37 -10 -18 -8 -24 7 -36 38 -29 56 -7 32 38 -7 14 -8 23
-1 30 7 7 22 -14 47 -67 29 -61 34 -79 24 -86 -10 -6 1 -28 44 -92 54 -78 58
-88 55 -133 -3 -41 -6 -49 -27 -54 -21 -5 -22 -7 -7 -19 24 -20 46 -6 46 29 0
42 16 70 40 70 21 0 27 15 10 25 -5 3 -10 16 -10 29 0 13 -9 31 -21 42 -13 12
-19 27 -16 41 2 13 1 23 -4 23 -4 0 -21 14 -38 31 -33 32 -42 65 -16 55 30
-11 14 14 -35 55 -49 41 -61 64 -39 71 7 2 9 15 5 35 -5 20 -12 30 -20 27 -7
-3 -25 5 -40 17 -19 15 -42 22 -80 23 l-53 1 15 -33z"/>
<path d="M780 3571 c-22 -44 -26 -76 -10 -86 6 -3 10 -1 10 5 0 6 10 8 24 4
20 -5 24 -1 29 25 4 19 13 31 22 31 21 0 12 14 -25 40 l-29 21 -21 -40z"/>
<path d="M347 3562 c-17 -3 -71 -72 -63 -80 8 -8 66 29 76 49 14 25 10 36 -13
31z"/>
<path d="M4631 3494 c5 -25 11 -50 14 -55 10 -15 34 -10 55 11 32 32 25 55
-23 74 -23 9 -45 16 -49 16 -3 0 -2 -21 3 -46z"/>
<path d="M4550 3445 c0 -49 26 -113 65 -160 17 -21 24 -25 25 -14 0 9 -7 22
-15 29 -16 13 -21 40 -7 40 4 0 17 -7 29 -15 18 -13 22 -24 20 -64 -2 -40 3
-54 22 -74 27 -30 20 -51 -15 -43 -23 6 -24 5 -18 -34 5 -31 3 -41 -9 -46 -9
-3 -14 -11 -11 -18 3 -7 -4 -21 -16 -31 -11 -10 -20 -24 -20 -32 0 -19 -13
-16 -38 7 -30 28 -37 63 -19 98 14 29 14 29 -12 23 -23 -7 -26 -12 -26 -55 -1
-30 -7 -53 -15 -60 -20 -15 -20 -208 -1 -251 7 -16 18 -40 23 -52 11 -22 4
-43 -14 -43 -5 0 -7 7 -4 16 4 10 1 14 -6 12 -17 -6 -24 -40 -19 -99 3 -49 4
-50 29 -44 42 10 52 24 52 70 0 24 6 48 14 54 18 15 46 3 46 -20 0 -10 7 -19
15 -19 8 0 15 4 15 10 0 14 -20 30 -70 54 -48 23 -63 53 -36 75 20 17 41 4 25
-15 -9 -11 -8 -14 5 -14 22 0 20 28 -5 69 -19 32 -19 35 -4 44 14 8 16 18 10
63 -6 50 -5 54 14 54 12 0 21 -6 21 -12 0 -7 10 -13 23 -14 12 0 30 -4 40 -8
25 -12 23 22 -4 50 -17 18 -19 26 -10 43 15 28 41 27 41 -1 0 -13 10 -47 22
-75 18 -42 28 -53 47 -53 23 0 23 0 -8 35 -37 43 -38 47 -8 40 16 -4 29 0 41
14 11 12 25 21 33 21 8 0 13 11 13 30 0 22 -4 28 -15 24 -8 -4 -15 -15 -15
-26 0 -12 -4 -17 -12 -12 -6 4 -16 0 -23 -9 -15 -21 -52 -12 -61 15 -4 13 2
28 17 44 l23 25 -23 89 c-23 89 -22 128 4 93 18 -24 23 -16 29 41 4 46 3 47
-14 31 -23 -21 -37 -13 -45 25 -7 33 -21 31 -35 -6 -9 -22 -12 -23 -32 -13
-13 7 -30 15 -38 19 -11 6 -14 21 -12 64 3 46 1 56 -12 56 -12 0 -16 -10 -16
-45z"/>
<path d="M4380 3340 c6 -11 20 -25 32 -31 21 -11 21 -11 -1 20 -25 35 -48 43
-31 11z"/>
<path d="M1173 3304 c-32 -16 -44 -34 -23 -34 6 0 10 5 10 10 0 6 3 9 8 8 4
-1 20 4 35 10 35 15 60 15 52 2 -3 -5 -21 -10 -38 -10 l-32 -1 34 -15 c19 -8
44 -13 54 -12 11 2 22 -3 25 -11 3 -8 0 -11 -6 -7 -7 4 -8 -4 -1 -28 5 -19 8
-40 7 -46 -2 -7 3 -15 10 -17 7 -3 10 1 8 9 -12 37 -15 78 -6 73 6 -3 10 1 10
9 0 8 -4 18 -10 21 -5 3 -10 14 -10 23 0 15 2 15 10 2 8 -13 10 -12 10 3 0 10
4 16 9 13 12 -8 12 -84 0 -91 -5 -4 -9 -11 -9 -16 0 -6 5 -7 10 -4 6 3 10 -1
10 -10 0 -9 -4 -14 -9 -10 -6 3 -9 -4 -8 -15 1 -18 3 -18 16 -5 16 16 22 115
9 148 -10 23 -128 24 -175 1z"/>
<path d="M1107 3252 c-12 -13 -13 -21 -6 -32 9 -12 10 -12 5 3 -3 10 -2 15 4
12 5 -3 8 -27 6 -53 -8 -94 -32 -125 -39 -49 -3 36 -4 34 -5 -15 -1 -37 -6
-58 -14 -58 -6 0 -8 -3 -5 -7 4 -3 -1 -12 -11 -19 -9 -7 -12 -14 -6 -14 13 0
69 52 77 71 4 10 6 9 6 -3 1 -14 10 -18 39 -18 21 0 42 4 48 9 5 6 17 4 29 -6
19 -15 19 -15 -4 -8 -14 4 -21 3 -18 -2 4 -6 -4 -8 -18 -5 -15 2 -25 0 -25 -7
0 -6 -12 -11 -26 -11 -14 0 -23 4 -19 9 3 5 0 13 -7 17 -7 4 -10 4 -6 -1 4 -4
3 -14 -3 -22 -9 -10 -4 -13 29 -13 23 0 43 4 46 8 3 5 15 8 28 7 13 -1 32 2
42 8 17 9 18 10 3 19 -24 13 -21 25 9 44 20 14 27 15 37 4 9 -10 9 -11 -2 -5
-11 6 -13 4 -8 -8 3 -10 2 -17 -3 -17 -6 0 -10 -5 -10 -12 0 -6 11 -1 25 12
32 30 31 35 -5 57 -16 9 -30 23 -30 31 0 7 5 10 12 6 8 -5 9 -2 5 10 -4 10 -7
20 -7 22 0 3 -12 9 -26 14 -14 6 -22 14 -19 20 3 6 -4 10 -17 11 -13 0 -31 2
-41 4 -15 3 -16 1 -5 -12 12 -14 10 -14 -18 0 -29 15 -33 15 -47 -1z m27 0 c3
-5 -1 -9 -9 -9 -8 0 -12 4 -9 9 3 4 7 8 9 8 2 0 6 -4 9 -8z"/>
<path d="M1076 3204 c-4 -9 -5 -17 -4 -18 2 -1 10 -7 19 -14 13 -10 15 -8 14
8 -2 30 -21 45 -29 24z"/>
<path d="M4525 3180 c0 -43 14 -56 17 -15 0 14 1 30 2 37 1 6 -4 13 -9 15 -7
2 -11 -13 -10 -37z"/>
<path d="M4210 3189 c-39 -16 -60 -40 -60 -71 0 -39 34 -38 54 1 9 16 23 31
31 35 20 7 50 -8 59 -29 6 -17 -19 -75 -32 -75 -4 0 -31 -23 -59 -50 -54 -52
-69 -92 -37 -104 24 -9 167 -7 183 3 8 5 11 16 8 25 -5 12 -21 16 -67 16 -33
0 -60 4 -60 9 0 5 24 29 54 54 29 26 59 60 66 77 31 75 -55 143 -140 109z"/>
<path d="M4596 3144 c-12 -31 -6 -54 12 -54 27 0 31 8 19 41 -13 33 -22 37
-31 13z"/>
<path d="M1423 3081 c0 -26 -4 -71 -7 -101 -13 -116 -12 -174 4 -177 28 -5 40
13 44 71 2 32 7 60 10 63 3 3 1 14 -5 24 -6 13 -6 19 1 19 5 0 10 -7 10 -15 0
-9 23 -25 54 -39 65 -29 128 -84 163 -143 13 -23 29 -43 35 -43 6 0 8 -6 5
-14 -3 -8 -2 -27 3 -43 7 -25 8 -26 9 -5 1 16 5 21 14 16 10 -6 10 -4 0 7 -7
7 -13 27 -13 43 1 27 2 29 11 13 17 -29 32 -156 20 -170 -5 -7 -8 -38 -6 -70
3 -47 1 -58 -10 -53 -9 3 -12 0 -8 -10 4 -10 0 -12 -13 -8 -15 6 -17 4 -7 -6
9 -10 8 -16 -3 -27 -8 -8 -14 -26 -15 -41 l-1 -27 -8 25 c-7 22 -8 22 -10 5
-1 -11 -2 -24 -1 -28 1 -5 -2 -6 -7 -3 -4 2 -14 1 -22 -5 -10 -6 -11 -9 -2 -9
6 0 12 -4 12 -9 0 -5 -8 -8 -17 -7 -10 0 -18 -6 -18 -14 0 -8 -6 -15 -12 -15
-13 0 -19 -13 -10 -21 3 -3 14 7 26 22 11 15 21 23 21 19 0 -16 53 40 67 70 7
17 23 46 34 65 12 19 22 49 22 67 1 18 4 33 8 33 4 0 7 29 8 65 0 36 -3 65 -7
65 -4 0 -8 17 -9 37 -1 20 -8 40 -15 44 -7 5 -10 9 -5 9 10 0 -18 56 -50 97
-25 34 -56 39 -74 12 -7 -12 -9 -11 -9 3 0 9 -5 18 -12 20 -9 3 -9 6 0 12 7 4
12 2 12 -4 0 -6 5 -8 10 -5 6 3 10 14 10 23 0 15 -2 15 -10 2 -8 -13 -10 -13
-10 2 0 9 -5 20 -11 24 -8 4 -9 -1 -4 -16 5 -17 4 -21 -5 -15 -9 6 -11 4 -5
-5 6 -10 4 -12 -9 -7 -10 4 -20 7 -22 7 -2 0 -4 5 -4 11 0 5 6 7 13 4 6 -4 4
0 -6 9 -11 8 -25 12 -32 10 -16 -7 -29 12 -15 21 6 4 17 1 25 -5 8 -6 20 -8
26 -4 8 4 9 3 5 -4 -4 -7 -2 -12 3 -12 21 0 11 20 -18 35 -28 14 -31 14 -50
-11 -18 -23 -20 -24 -18 -5 1 12 5 21 9 21 4 0 8 5 8 11 0 7 -11 9 -28 6 l-28
-6 7 62 c4 34 5 65 3 69 -3 5 -18 7 -33 6 -25 -2 -27 -5 -28 -47z m271 -216
c-7 17 -6 18 8 5 9 -8 14 -18 12 -22 -3 -4 4 -11 13 -17 10 -6 12 -11 6 -11
-7 0 -13 -10 -13 -22 0 -17 3 -19 9 -9 6 9 11 10 15 2 4 -6 3 -11 -3 -11 -6 0
-7 -8 -4 -17 4 -10 -5 -4 -20 13 -15 18 -27 37 -27 43 0 6 -5 11 -11 11 -5 0
-7 5 -4 10 3 6 2 10 -3 10 -5 0 -9 7 -9 15 0 13 3 12 19 -2 18 -16 18 -16 12
2z m106 -305 c0 -5 -5 -10 -11 -10 -5 0 -7 5 -4 10 3 6 8 10 11 10 2 0 4 -4 4
-10z"/>
<path d="M1697 2834 c7 -3 9 -13 6 -22 -4 -14 -3 -14 5 -2 12 16 7 30 -11 29
-9 0 -9 -2 0 -5z"/>
<path d="M1078 3035 c-11 -24 -19 -29 -43 -26 -13 1 -36 -49 -29 -61 3 -5 0
-15 -6 -23 -14 -17 -5 -69 10 -60 6 3 10 11 10 16 0 6 -4 7 -10 4 -5 -3 -10
-2 -10 4 0 5 4 12 9 16 5 3 8 19 6 36 -4 31 -4 31 15 14 16 -14 17 -19 6 -31
-14 -13 -16 -98 -3 -111 7 -7 9 7 10 69 0 25 4 35 11 31 6 -3 8 -3 4 1 -3 4
-1 22 7 39 7 18 10 38 8 45 -3 6 3 12 12 12 10 0 15 5 12 14 -3 7 0 19 6 25 8
8 8 11 -1 11 -7 0 -18 -11 -24 -25z m-18 -77 c0 -4 -7 -5 -15 -2 -8 4 -15 16
-15 27 0 20 0 20 15 1 8 -10 15 -22 15 -26z"/>
<path d="M2051 3029 c-117 -36 -181 -131 -181 -272 0 -126 40 -203 129 -249
46 -24 65 -28 136 -28 94 0 143 16 192 62 53 51 53 118 1 118 -11 0 -43 -18
-70 -40 -71 -56 -115 -67 -173 -41 -36 16 -50 29 -65 63 -36 79 -38 78 118 78
202 1 242 15 242 85 0 78 -50 161 -120 199 -55 30 -153 42 -209 25z m140 -106
c15 -9 35 -34 44 -55 27 -69 29 -68 -110 -68 -93 0 -125 3 -125 13 1 25 39 95
61 111 30 21 93 21 130 -1z"/>
<path d="M2545 3015 l-25 -24 0 -233 c0 -263 3 -278 64 -278 57 0 63 17 69
190 7 226 30 267 138 242 56 -13 84 -5 94 28 14 44 -23 81 -96 95 -43 8 -86
-11 -118 -51 l-20 -26 -7 26 c-6 27 -38 56 -62 56 -7 0 -24 -11 -37 -25z"/>
<path d="M3010 3020 c-19 -19 -20 -33 -20 -263 0 -224 2 -245 18 -260 27 -25
78 -22 96 5 13 18 16 53 16 171 0 196 20 242 109 254 90 12 111 -38 111 -272
0 -164 6 -178 69 -173 57 5 62 24 59 238 -3 203 -12 240 -68 280 -76 54 -174
48 -250 -17 -39 -34 -40 -34 -40 -11 0 30 -34 68 -60 68 -11 0 -29 -9 -40 -20z"/>
<path d="M3795 3029 c-186 -44 -258 -321 -123 -474 46 -53 105 -75 198 -75 89
0 151 22 194 71 61 67 61 141 -1 147 -28 3 -36 -3 -68 -46 -42 -59 -78 -77
-143 -69 -37 4 -52 12 -74 38 -33 40 -42 80 -36 163 8 100 52 146 140 146 38
0 47 -5 93 -55 29 -30 59 -55 67 -55 80 0 83 89 5 157 -61 54 -158 73 -252 52z"/>
<path d="M4645 2867 c-8 -32 0 -47 26 -47 25 0 24 -14 -3 -40 l-23 -21 23 -19
c12 -10 28 -20 34 -22 9 -3 9 -12 -1 -35 -14 -35 -8 -68 14 -77 12 -4 15 4 15
34 0 25 6 42 16 48 13 7 9 21 -31 98 -56 107 -62 115 -70 81z"/>
<path d="M4607 2804 c-10 -11 -8 -82 2 -88 12 -8 26 73 14 85 -5 5 -12 6 -16
3z"/>
<path d="M1511 2716 c-19 -43 -30 -80 -26 -87 5 -7 4 -10 -2 -6 -12 8 -76
-130 -67 -145 4 -7 2 -8 -4 -4 -7 4 -13 2 -13 -3 -3 -20 -5 -26 -27 -68 -12
-23 -22 -44 -22 -46 0 -2 13 -4 30 -4 29 0 46 19 33 39 -4 7 -1 8 7 3 10 -6
12 -4 7 8 -3 10 -2 17 3 17 10 0 66 121 62 134 -2 5 2 12 8 16 6 4 12 16 13
28 0 11 5 18 9 16 7 -5 12 10 9 29 0 4 4 7 10 7 5 0 7 5 4 10 -3 6 -2 10 3 10
9 0 25 37 23 53 -1 4 5 15 14 23 24 24 18 44 -12 44 -25 -1 -32 -9 -62 -74z
m-21 -130 c0 -3 -4 -8 -10 -11 -5 -3 -10 -1 -10 4 0 6 5 11 10 11 6 0 10 -2
10 -4z"/>
<path d="M4782 2736 c2 -16 9 -31 16 -34 17 -5 15 20 -3 44 -15 18 -15 18 -13
-10z"/>
<path d="M1756 2653 c-6 -14 -5 -15 5 -6 7 7 10 15 7 18 -3 3 -9 -2 -12 -12z"/>
<path d="M4793 2649 c4 -13 7 -29 7 -36 0 -7 7 -10 16 -6 22 8 14 57 -10 61
-15 3 -18 0 -13 -19z"/>
<path d="M1754 2615 c-8 -21 6 -41 17 -24 12 19 11 39 -1 39 -6 0 -13 -7 -16
-15z"/>
<path d="M4821 2567 c-21 -26 -41 -87 -41 -126 0 -33 -4 -40 -22 -43 -15 -2
-21 -9 -19 -18 3 -8 6 -34 9 -56 4 -38 2 -42 -25 -49 -19 -6 -23 -9 -12 -12 9
-2 32 5 50 16 19 12 43 21 55 21 24 0 44 52 44 113 0 20 5 60 11 88 10 47 9
54 -7 66 -22 16 -29 16 -43 0z m29 -185 c0 -22 -37 -59 -48 -47 -4 4 -1 10 6
12 6 3 12 9 12 15 0 6 -7 8 -15 5 -8 -4 -17 -2 -20 3 -11 17 5 30 36 30 22 0
29 -5 29 -18z"/>
<path d="M1747 2563 c-4 -3 -7 -18 -7 -33 0 -49 -107 -210 -139 -210 -6 0 -14
-7 -19 -16 -5 -9 -12 -15 -15 -15 -23 3 -26 -2 -11 -24 20 -30 12 -33 -15 -4
-13 14 -24 18 -33 13 -13 -9 -15 -9 -58 -14 -19 -2 -15 -4 18 -12 50 -11 56
-28 8 -24 -25 2 -36 -2 -39 -14 -4 -15 1 -16 42 -7 25 5 53 15 61 22 8 7 20
11 26 8 6 -2 19 6 29 17 10 11 13 20 7 20 -6 0 -12 -5 -14 -11 -2 -7 -10 -4
-18 7 -13 16 -13 17 2 12 9 -4 24 0 35 8 10 9 12 12 4 8 -10 -5 -12 -3 -7 5 6
9 11 9 21 1 11 -9 13 -6 11 14 -2 14 0 24 3 23 16 -4 50 25 53 45 2 13 8 22
14 21 7 -1 12 8 12 21 0 13 8 36 18 51 10 16 19 43 19 62 0 18 0 33 -1 33 0 0
-4 -3 -7 -7z m-214 -326 c-3 -5 -10 -4 -15 1 -6 6 -7 16 -3 22 6 9 9 9 16 -1
4 -7 5 -17 2 -22z"/>
<path d="M4451 2480 l-22 -31 22 -18 22 -18 -39 -39 c-25 -25 -51 -68 -72
-119 -19 -44 -45 -98 -60 -120 -23 -37 -26 -48 -23 -127 2 -76 0 -88 -14 -88
-9 0 -14 4 -11 9 4 5 -8 12 -25 16 -37 8 -53 -9 -37 -38 7 -14 7 -22 -2 -27
-8 -5 -2 -11 17 -17 15 -6 44 -25 63 -42 46 -40 70 -41 72 -1 0 17 1 36 2 43
1 18 -39 20 -54 2 -7 -8 -16 -15 -21 -15 -10 0 3 42 36 113 20 44 25 67 21 93
-7 33 -6 34 28 34 19 0 37 -4 41 -9 3 -5 -8 -31 -25 -57 -33 -53 -38 -85 -15
-104 9 -7 17 -11 18 -9 12 18 27 60 31 89 3 19 19 49 34 65 47 50 62 78 62
112 0 23 5 33 15 33 8 0 15 9 15 20 0 27 24 25 43 -2 13 -21 14 -13 12 96 -2
98 -5 120 -19 128 -9 5 -27 20 -41 34 -32 32 -47 30 -74 -6z m79 -39 c0 -24
-33 -121 -41 -121 -14 0 -19 36 -9 70 14 48 13 60 -5 60 -23 0 -18 20 8 29 24
10 47 -9 47 -38z m-40 -203 c0 -28 -12 -34 -44 -22 -21 8 -21 34 0 34 11 0 14
6 9 20 -3 11 -3 25 1 31 10 16 33 -28 34 -63z"/>
<path d="M135 2425 c8 -34 10 -38 23 -34 5 2 0 18 -10 34 l-20 30 7 -30z"/>
<path d="M196 2416 c3 -8 1 -24 -6 -35 -8 -17 -8 -21 4 -21 7 0 17 7 20 16 11
28 6 54 -9 54 -8 0 -12 -6 -9 -14z"/>
<path d="M1890 2290 l0 -70 55 0 c30 0 55 5 55 10 0 6 -20 10 -45 10 -38 0
-45 3 -45 20 0 17 7 20 40 20 22 0 40 5 40 10 0 6 -18 10 -40 10 -33 0 -40 3
-40 20 0 17 7 20 39 20 22 0 43 5 46 10 4 6 -15 10 -49 10 l-56 0 0 -70z"/>
<path d="M2702 2288 c3 -74 20 -101 26 -40 4 40 24 41 52 2 22 -31 40 -39 40
-18 0 6 -8 20 -17 30 -15 17 -15 19 1 31 11 8 17 23 14 38 -3 22 -8 24 -61 27
l-58 3 3 -73z m86 35 c-2 -11 -14 -19 -31 -21 -22 -3 -27 1 -27 17 0 17 6 21
31 21 24 0 30 -4 27 -17z"/>
<path d="M3580 2289 c0 -52 3 -70 13 -67 6 3 13 21 15 41 2 20 7 37 13 37 5 0
12 1 17 3 4 1 9 -18 12 -43 5 -49 23 -57 28 -14 6 50 -6 74 -37 74 -20 0 -30
6 -34 20 -3 11 -10 20 -16 20 -7 0 -11 -26 -11 -71z"/>
<path d="M2182 2314 c-52 -36 -4 -122 53 -96 14 7 25 16 25 22 0 13 -6 13 -30
-2 -16 -10 -23 -10 -37 5 -16 16 -15 17 20 17 47 0 61 25 28 52 -28 22 -31 22
-59 2z m48 -19 c11 -13 8 -15 -20 -15 -28 0 -31 2 -20 15 7 8 16 15 20 15 4 0
13 -7 20 -15z"/>
<path d="M2317 2322 c-27 -3 -28 -5 -25 -53 4 -59 22 -70 26 -15 2 28 9 40 23
43 19 5 25 19 12 25 -5 2 -21 2 -36 0z"/>
<path d="M2872 2314 c-52 -36 -8 -117 52 -95 14 6 26 15 26 21 0 13 -6 13 -30
-2 -16 -10 -23 -10 -37 5 -16 16 -15 17 20 17 47 0 61 25 28 52 -28 22 -31 22
-59 2z m46 -22 c2 -7 -7 -12 -23 -12 -24 0 -26 2 -15 15 14 17 31 16 38 -3z"/>
<path d="M2993 2314 c-22 -16 -7 -47 26 -52 11 -2 21 -10 21 -18 0 -16 -26
-19 -35 -4 -8 13 -25 13 -25 0 0 -19 41 -33 66 -21 35 15 29 40 -12 57 -25 11
-33 19 -26 26 7 7 17 6 31 -1 17 -9 21 -9 21 2 0 20 -46 27 -67 11z"/>
<path d="M3122 2314 c-52 -36 -8 -117 52 -95 14 6 26 15 26 21 0 13 -6 13 -30
-2 -16 -10 -23 -10 -37 5 -16 16 -15 17 20 17 47 0 61 25 28 52 -28 22 -31 22
-59 2z m46 -22 c2 -7 -7 -12 -23 -12 -24 0 -26 2 -15 15 14 17 31 16 38 -3z"/>
<path d="M3253 2320 c-13 -5 -23 -14 -23 -20 0 -13 13 -13 27 1 12 12 43 6 43
-9 0 -5 -15 -13 -32 -18 -22 -7 -34 -17 -36 -31 -4 -25 22 -37 48 -23 10 5 26
7 34 4 13 -5 16 1 16 32 0 22 -4 44 -8 50 -11 17 -44 24 -69 14z m47 -65 c0
-19 -24 -30 -41 -19 -9 5 -7 11 6 21 24 17 35 17 35 -2z"/>
<path d="M3363 2315 c-8 -21 1 -100 12 -100 6 0 11 17 13 39 2 28 9 40 23 43
29 8 23 20 -12 25 -19 3 -33 0 -36 -7z"/>
<path d="M3490 2322 c-43 -13 -53 -73 -16 -97 28 -18 76 -6 76 20 0 14 -2 15
-21 1 -29 -20 -49 -10 -49 24 0 33 23 45 45 23 18 -17 30 -11 22 10 -6 16 -35
26 -57 19z"/>
<path d="M2030 2268 c0 -26 5 -48 10 -48 6 0 10 11 10 24 0 37 10 56 30 56 15
0 20 -9 22 -42 2 -24 8 -42 13 -41 13 3 19 48 11 79 -6 21 -12 24 -51 22 l-45
-1 0 -49z"/>
<path d="M2392 2308 c-17 -17 -15 -63 3 -78 8 -7 26 -10 40 -8 17 4 25 1 25
-9 0 -20 -29 -28 -51 -15 -11 7 -20 8 -24 2 -3 -5 3 -14 14 -19 53 -29 91 6
91 83 l0 53 -43 1 c-24 1 -49 -4 -55 -10z m61 -20 c14 -21 2 -48 -22 -48 -24
0 -34 25 -20 51 11 22 27 21 42 -3z"/>
<path d="M2510 2316 c0 -2 9 -26 20 -52 22 -50 20 -74 -5 -74 -8 0 -15 -5 -15
-11 0 -6 10 -9 23 -7 22 3 58 62 72 121 11 40 -11 33 -25 -8 -13 -40 -25 -38
-35 5 -4 17 -13 30 -21 30 -8 0 -14 -2 -14 -4z"/>
<path d="M4835 2270 c-16 -17 -39 -30 -52 -30 -33 0 -41 -29 -15 -49 26 -20
13 -41 -33 -56 -16 -6 -31 -18 -33 -27 -3 -14 3 -16 30 -11 24 3 38 0 47 -11
11 -13 11 -16 0 -16 -40 0 -89 -22 -89 -39 0 -11 -9 -38 -20 -62 -30 -67 -27
-101 13 -124 32 -18 32 -18 15 2 -26 29 -23 46 6 41 22 -4 25 -1 28 26 3 27 7
31 33 31 22 0 30 5 33 20 2 11 17 67 33 124 20 71 27 115 23 138 -4 21 -2 39
6 48 24 29 3 25 -25 -5z"/>
<path d="M1890 2085 c0 -85 17 -103 22 -23 l3 53 34 -53 c18 -29 39 -51 45
-49 6 2 12 34 14 76 2 56 0 72 -10 69 -7 -3 -15 -24 -18 -47 l-5 -43 -32 46
c-18 25 -37 46 -43 46 -6 0 -10 -31 -10 -75z"/>
<path d="M2520 2140 c-45 -45 -13 -130 48 -130 29 0 62 26 62 48 0 17 -20 15
-26 -2 -17 -43 -74 -22 -74 27 0 52 41 77 70 42 16 -19 30 -19 30 0 0 36 -78
47 -110 15z"/>
<path d="M2890 2086 l0 -74 45 2 c48 1 65 15 65 52 0 37 -24 58 -58 51 -29 -6
-32 -4 -32 18 0 14 -4 25 -10 25 -6 0 -10 -31 -10 -74z m75 -21 c0 -23 -4 -30
-20 -30 -21 0 -31 25 -21 51 11 28 41 12 41 -21z"/>
<path d="M3370 2140 c-45 -45 -13 -130 48 -130 29 0 62 26 62 48 0 17 -20 15
-26 -3 -8 -20 -42 -29 -59 -15 -18 15 -20 71 -3 88 16 16 43 15 58 -3 16 -19
30 -19 30 0 0 36 -78 47 -110 15z"/>
<path d="M3781 2138 c-4 -13 -5 -45 -2 -73 5 -45 9 -50 34 -53 15 -2 27 1 27
7 0 6 -7 11 -15 11 -19 0 -21 66 -2 74 10 5 10 7 0 12 -7 3 -13 12 -13 19 0
25 -20 27 -29 3z"/>
<path d="M230 2120 c-11 -21 3 -29 15 -10 5 8 11 8 19 1 14 -12 26 -5 26 16 0
21 -48 16 -60 -7z"/>
<path d="M2063 2113 c-25 -9 -13 -22 16 -17 38 8 50 -13 12 -21 -72 -16 -61
-65 14 -62 l44 2 -5 40 c-3 22 -7 46 -10 53 -3 12 -47 15 -71 5z m55 -65 c-5
-15 -48 -24 -48 -10 0 14 12 22 33 22 10 0 17 -5 15 -12z"/>
<path d="M2180 2063 c0 -29 5 -53 10 -53 6 0 10 13 10 29 0 42 10 61 31 61 16
0 19 -8 19 -45 0 -25 4 -45 10 -45 15 0 23 46 13 77 -8 24 -15 28 -51 29 l-42
1 0 -54z"/>
<path d="M2322 2108 c-7 -7 -12 -27 -12 -45 0 -42 35 -63 75 -45 19 9 25 19
25 45 0 40 -15 57 -50 57 -14 0 -31 -5 -38 -12z m63 -43 c0 -23 -5 -31 -22
-33 -17 -3 -24 3 -29 22 -8 32 3 48 29 44 17 -2 22 -10 22 -33z"/>
<path d="M2669 2104 c-11 -14 -9 -15 24 -9 46 9 50 -8 5 -21 -26 -8 -33 -15
-33 -34 0 -23 4 -25 48 -26 l47 -1 0 42 c0 22 -5 46 -12 53 -17 17 -63 15 -79
-4z m61 -49 c0 -20 -28 -31 -42 -17 -10 10 8 23 40 31 1 1 2 -6 2 -14z"/>
<path d="M2800 2064 c0 -64 17 -73 22 -12 3 36 7 43 28 48 30 7 16 18 -22 18
-27 0 -28 -2 -28 -54z"/>
<path d="M3033 2094 c-15 -24 -15 -29 -2 -53 29 -52 99 -35 99 24 0 57 -66 76
-97 29z m72 -15 c8 -26 -16 -54 -39 -46 -16 6 -22 48 -9 60 14 14 42 6 48 -14z"/>
<path d="M3160 2062 c0 -64 22 -69 30 -6 3 26 11 40 22 42 13 3 17 -6 20 -40
4 -53 22 -57 26 -5 4 50 -10 66 -59 64 l-39 -1 0 -54z"/>
<path d="M3528 2109 c-22 -13 -24 -62 -2 -83 27 -27 84 -15 84 18 0 6 -5 5
-12 -2 -17 -17 -58 -15 -58 3 0 10 11 15 35 15 27 0 35 4 35 18 0 37 -44 54
-82 31z m57 -24 c0 -5 -10 -11 -22 -13 -16 -2 -23 2 -23 13 0 11 7 15 23 13
12 -2 22 -7 22 -13z"/>
<path d="M3643 2104 c-8 -22 2 -87 14 -91 8 -3 13 11 15 39 2 35 7 43 23 43
16 0 21 -8 23 -42 2 -24 8 -43 13 -43 6 0 9 22 7 53 l-3 52 -44 0 c-24 1 -45
-5 -48 -11z"/>
<path d="M3865 2100 c-35 -39 6 -99 58 -86 15 3 27 13 27 21 0 12 -4 13 -19 4
-19 -13 -51 -6 -51 10 0 5 17 11 37 13 41 3 51 18 28 42 -22 22 -58 20 -80 -4z
m63 -17 c2 -8 -5 -13 -17 -13 -21 0 -35 13 -24 24 10 10 36 3 41 -11z"/>
<path d="M3990 2063 c0 -29 5 -53 10 -53 6 0 10 13 10 29 0 42 10 61 31 61 10
0 19 4 19 10 0 5 -16 9 -35 8 l-35 -1 0 -54z"/>
<path d="M304 2066 c-10 -8 -17 -17 -14 -19 3 -3 16 3 29 14 27 22 15 26 -15
5z"/>
<path d="M4136 1849 c-21 -19 -29 -36 -33 -72 -5 -43 -8 -47 -32 -47 -39 -1
-63 -23 -56 -52 6 -23 4 -24 -29 -20 -40 5 -47 -10 -21 -44 8 -10 15 -29 15
-40 0 -17 -5 -20 -25 -16 -14 2 -25 11 -25 18 0 16 -36 19 -45 5 -3 -6 4 -15
15 -21 33 -18 25 -40 -14 -40 -40 0 -50 -9 -31 -27 10 -9 15 -9 17 -1 2 6 10
8 16 4 9 -6 8 -15 -5 -36 -22 -38 -40 -44 -70 -24 -30 19 -35 15 -35 -30 0
-39 -27 -57 -53 -36 -12 10 -15 9 -15 -8 0 -23 -19 -33 -49 -25 -29 7 -27 -13
4 -41 14 -13 25 -25 25 -27 0 -2 -16 -4 -35 -5 -28 0 -36 4 -45 25 l-10 26 5
-27 c5 -27 4 -28 -41 -28 -40 0 -45 -2 -34 -15 10 -12 9 -15 -4 -15 -10 0 -22
-13 -28 -30 -15 -44 -42 -55 -61 -27 -14 19 -18 20 -26 7 -7 -10 -7 -17 0 -21
6 -3 9 -15 7 -26 -3 -19 1 -23 21 -23 4 0 28 16 52 35 52 42 72 44 87 9 14
-30 26 -28 121 22 35 18 68 31 74 27 5 -3 6 -22 3 -43 -4 -28 -2 -39 9 -44 8
-3 29 -27 45 -53 23 -36 30 -42 30 -25 0 15 6 22 20 22 11 0 20 6 20 14 0 23
20 29 38 13 16 -14 18 -14 28 8 15 31 -6 54 -26 30 -12 -14 -15 -12 -27 16 -7
18 -10 35 -6 39 16 12 83 31 92 25 5 -3 12 3 15 12 3 10 22 28 42 41 20 13 34
29 31 36 -3 8 1 24 10 35 8 12 13 24 12 25 -11 9 -90 13 -95 5 -3 -5 2 -9 10
-9 33 0 26 -24 -20 -71 -51 -52 -64 -59 -64 -33 0 14 -5 13 -36 -5 -60 -35
-95 -24 -143 46 -25 37 -16 48 33 39 28 -5 34 -3 44 18 6 14 26 33 43 42 28
14 30 18 15 26 -15 9 -15 11 8 29 29 23 36 24 36 4 0 -16 35 -21 45 -5 3 5 -1
26 -10 46 l-15 37 36 30 c31 26 34 31 19 40 -15 8 -15 11 4 28 27 26 37 24 50
-10 l12 -28 55 29 c57 31 68 48 32 48 l-21 0 21 23 c25 27 28 86 9 151 l-12
39 -29 -24z m-289 -651 c6 -7 13 -21 17 -32 5 -16 3 -17 -21 -12 -27 7 -53 31
-53 48 0 13 47 9 57 -4z"/>
<path d="M4610 1820 c-12 -7 -12 -12 -3 -21 9 -9 16 -9 26 -1 8 7 17 9 20 5 4
-3 7 1 7 10 0 19 -26 22 -50 7z"/>
<path d="M4660 1778 c0 -4 -6 -8 -12 -8 -16 -1 -68 -46 -68 -58 0 -5 -7 -15
-15 -22 -20 -17 -18 -30 8 -62 l23 -28 37 26 c31 21 36 29 31 50 -5 19 1 34
24 63 l31 39 -29 4 c-17 3 -30 1 -30 -4z"/>
<path d="M4522 1758 c7 -19 43 -21 58 -3 11 13 8 15 -25 15 -25 0 -35 -4 -33
-12z"/>
<path d="M458 1725 c2 -14 8 -28 13 -31 15 -9 10 33 -5 45 -11 9 -12 6 -8 -14z"/>
<path d="M4270 1740 c0 -6 -14 -19 -30 -29 -27 -16 -29 -20 -15 -31 12 -10 15
-10 15 3 0 21 40 33 51 16 7 -11 9 -10 9 3 0 25 21 34 35 14 12 -15 13 -15 19
0 11 29 6 34 -39 34 -25 0 -45 -5 -45 -10z"/>
<path d="M4270 1655 c-7 -9 -11 -18 -8 -20 3 -3 11 1 18 10 7 9 11 18 8 20 -3
3 -11 -1 -18 -10z"/>
<path d="M447 1623 c-9 -15 51 -76 67 -70 23 9 19 25 -6 29 -13 2 -27 13 -33
26 -10 22 -20 28 -28 15z"/>
<path d="M4500 1606 c0 -17 7 -26 25 -30 14 -4 25 -12 25 -19 0 -8 16 -12 45
-12 41 0 45 2 45 25 -1 23 -2 24 -14 8 -16 -22 -30 -23 -46 -4 -6 8 -27 24
-46 35 l-34 20 0 -23z"/>
<path d="M4166 1585 c4 -8 1 -15 -5 -15 -20 0 -11 -28 15 -49 36 -28 54 -27
54 4 0 16 6 25 15 25 8 0 15 7 15 15 0 24 -28 18 -46 -10 -25 -38 -46 -33 -38
10 4 22 2 35 -5 35 -6 0 -8 -7 -5 -15z"/>
<path d="M890 1571 c0 -12 39 -25 48 -16 7 7 -17 25 -35 25 -7 0 -13 -4 -13
-9z"/>
<path d="M4326 1538 c-9 -12 -16 -26 -16 -31 0 -13 49 27 50 41 0 19 -17 14
-34 -10z"/>
<path d="M4430 1516 c0 -23 26 -77 33 -69 11 10 8 43 -3 43 -5 0 -10 9 -10 20
0 11 -4 20 -10 20 -5 0 -10 -6 -10 -14z"/>
<path d="M917 1455 c13 -25 31 -45 38 -45 7 0 22 -3 32 -6 17 -6 17 -6 0 7
-15 12 -16 19 -8 42 14 35 14 47 1 47 -5 0 -10 -9 -10 -19 0 -11 -4 -23 -10
-26 -6 -4 -10 5 -10 19 0 22 -5 26 -29 26 l-30 0 26 -45z"/>
<path d="M4136 1460 c-18 -19 -18 -20 8 -50 l26 -31 10 27 c23 59 -5 93 -44
54z"/>
<path d="M4515 1460 c-3 -5 2 -18 12 -29 l17 -21 23 22 c13 12 23 25 23 30 0
11 -68 10 -75 -2z"/>
<path d="M4264 1383 c-9 -69 -29 -111 -57 -124 -18 -8 -27 -22 -31 -51 -4 -22
-14 -50 -22 -64 -9 -13 -12 -24 -6 -24 6 0 18 -3 27 -7 14 -5 16 -2 11 14 -7
21 15 46 49 57 30 9 49 -8 43 -38 -6 -29 3 -34 22 -10 16 19 80 50 120 59 30
7 42 25 16 25 -24 0 -68 61 -63 87 3 19 2 21 -9 12 -8 -6 -14 -26 -14 -43 0
-38 -22 -72 -39 -61 -9 5 -11 22 -6 56 5 37 3 55 -11 78 -15 25 -15 32 -4 46
12 15 16 13 37 -12 16 -19 23 -22 19 -10 -3 10 -6 20 -6 23 0 4 -56 34 -64 34
-3 0 -8 -21 -12 -47z"/>
<path d="M4455 1400 c-3 -5 -1 -10 4 -10 6 0 11 5 11 10 0 6 -2 10 -4 10 -3 0
-8 -4 -11 -10z"/>
<path d="M1026 1373 c-18 -25 -18 -26 -2 -20 10 4 25 2 33 -5 12 -10 14 -7 11
17 -4 38 -19 40 -42 8z"/>
<path d="M4415 1369 c-12 -19 5 -23 22 -6 16 16 16 17 1 17 -9 0 -20 -5 -23
-11z"/>
<path d="M4446 1345 c-3 -10 5 -20 25 -30 l30 -16 -16 30 c-17 34 -30 39 -39
16z"/>
<path d="M530 1320 c0 -11 7 -20 15 -20 8 0 15 9 15 20 0 11 -7 20 -15 20 -8
0 -15 -9 -15 -20z"/>
<path d="M1008 1289 c-10 -5 -18 -14 -18 -18 0 -5 8 -11 18 -15 9 -3 22 -9 29
-12 7 -3 10 2 6 14 -7 28 23 35 58 15 26 -16 31 -16 39 -3 5 8 10 18 10 23 0
11 -122 8 -142 -4z"/>
<path d="M1164 1210 c22 -11 48 -20 59 -20 19 0 20 1 2 20 -13 14 -30 20 -59
20 l-41 -1 39 -19z"/>
<path d="M3337 1156 c-3 -7 -22 -19 -41 -26 -30 -10 -34 -14 -22 -25 10 -10
11 -25 6 -54 -4 -22 -4 -44 -1 -49 9 -14 42 2 71 34 26 28 25 28 -27 7 -19 -8
-16 18 8 72 11 25 19 49 16 51 -2 3 -7 -2 -10 -10z"/>
<path d="M1301 1124 c-1 -7 -17 -18 -37 -26 l-36 -14 40 -12 c23 -7 43 -21 50
-34 10 -22 11 -22 11 7 0 28 -26 103 -28 79z"/>
<path d="M4214 1108 c-37 -57 -44 -97 -19 -118 11 -9 20 -8 45 10 33 23 39 40
14 40 -22 0 -9 16 27 34 28 14 34 14 52 1 30 -21 41 -19 18 4 -10 10 -34 21
-52 24 -19 3 -44 8 -55 12 -14 4 -25 2 -30 -7z"/>
<path d="M3568 1085 c-6 -28 8 -43 24 -27 11 11 2 52 -12 52 -4 0 -10 -11 -12
-25z"/>
<path d="M3640 1080 c8 -5 25 -10 38 -10 12 0 22 -4 22 -10 0 -15 12 -12 40
10 l25 20 -70 0 c-49 0 -65 -3 -55 -10z"/>
<path d="M3416 1045 c18 -27 34 -25 34 6 0 14 -7 19 -25 19 -25 0 -25 -1 -9
-25z"/>
<path d="M3165 1041 l-30 -7 33 -11 c30 -11 45 -33 22 -33 -22 0 -33 -47 -20
-80 12 -29 14 -30 31 -14 15 13 16 20 6 36 -8 13 -8 22 -2 24 37 15 40 22 22
58 -9 20 -20 35 -24 35 -5 -1 -21 -4 -38 -8z"/>
<path d="M4057 1025 c27 -36 42 -31 27 9 -3 9 -15 16 -26 16 -18 0 -18 -1 -1
-25z"/>
<path d="M1422 998 c-18 -18 -15 -50 5 -46 20 4 38 58 19 58 -7 0 -17 -5 -24
-12z"/>
<path d="M3877 999 c7 -7 15 -10 18 -7 3 3 -2 9 -12 12 -14 6 -15 5 -6 -5z"/>
<path d="M4142 958 c3 -37 6 -42 23 -40 29 5 30 10 12 30 -10 10 -17 26 -17
35 0 9 -5 17 -11 17 -6 0 -9 -17 -7 -42z"/>
<path d="M1479 963 c-11 -12 -11 -17 -2 -20 7 -3 22 -20 33 -39 24 -38 37 -42
56 -16 23 30 17 71 -12 82 -37 14 -60 12 -75 -7z"/>
<path d="M3570 962 c0 -16 17 -29 42 -36 22 -5 26 -3 22 8 -6 15 -64 40 -64
28z"/>
<path d="M1620 935 c10 -13 10 -19 -5 -35 -21 -23 -12 -40 21 -40 17 0 30 10
44 33 l20 32 -22 3 c-13 2 -27 8 -32 13 -6 5 -16 9 -24 9 -12 0 -12 -3 -2 -15z"/>
<path d="M4055 933 c-13 -2 -25 -17 -32 -41 -6 -20 -10 -39 -7 -41 2 -2 18 0
36 5 24 7 33 16 33 31 1 11 7 28 14 37 12 14 11 16 -5 15 -11 -1 -28 -4 -39
-6z"/>
<path d="M1410 920 c0 -6 7 -10 15 -10 8 0 15 2 15 4 0 2 -7 6 -15 10 -8 3
-15 1 -15 -4z"/>
<path d="M3791 897 c-33 -16 -37 -34 -11 -42 20 -6 50 -58 50 -85 0 -5 -11
-10 -25 -10 -19 0 -25 5 -25 23 0 25 -16 54 -25 46 -3 -4 -1 -18 4 -32 10 -26
6 -37 -15 -37 -9 0 -12 9 -8 29 8 37 -11 49 -39 23 -12 -11 -32 -25 -45 -31
-33 -17 -40 10 -12 49 l21 30 -24 9 c-14 5 -27 16 -30 23 -10 24 -59 -41 -53
-68 5 -17 2 -24 -8 -24 -9 0 -20 -9 -26 -20 -6 -11 -19 -20 -30 -20 -23 0
-128 -38 -154 -56 -18 -12 -17 -14 13 -31 62 -34 68 -40 52 -55 -11 -10 -14
-10 -18 0 -3 6 -16 12 -29 12 -15 0 -24 6 -24 15 0 18 -18 19 -56 5 -18 -7
-30 -7 -39 0 -9 8 -25 6 -55 -6 -38 -15 -41 -19 -25 -30 23 -17 11 -34 -25
-34 -22 0 -33 8 -51 38 l-22 37 -8 -31 c-10 -36 -49 -76 -56 -56 -7 17 -33 15
-77 -8 -21 -10 -59 -22 -83 -26 -25 -4 -47 -13 -50 -20 -6 -17 -35 -18 -50 -3
-8 8 -17 8 -31 0 -11 -6 -45 -11 -76 -11 -83 0 -106 -12 -104 -55 2 -45 -5
-50 -42 -35 -21 9 -30 19 -30 36 0 12 5 26 10 29 13 8 13 42 -1 51 -6 3 -16 1
-22 -5 -19 -19 -39 -14 -28 8 9 16 6 19 -29 25 -51 8 -111 37 -107 50 6 18 65
18 99 2 41 -21 43 -20 56 8 17 37 75 45 124 18 27 -15 38 -17 38 -7 0 21 26
25 85 12 49 -10 55 -14 56 -37 1 -23 2 -23 8 5 6 27 10 30 56 36 47 5 48 5 15
10 -46 5 -56 39 -12 39 17 0 59 9 94 20 34 11 73 20 85 20 12 0 25 5 28 10 3
6 17 10 31 10 17 0 24 6 24 19 0 11 11 28 25 39 14 11 25 22 25 25 0 3 -24 3
-54 0 -64 -7 -106 2 -106 21 0 21 24 26 65 15 37 -11 83 -3 69 11 -5 5 -37 10
-71 12 -67 3 -73 -1 -73 -47 0 -31 -18 -41 -38 -22 -14 15 -17 14 -27 -6 -15
-30 -45 -32 -127 -7 -43 13 -81 19 -99 15 -18 -4 -29 -3 -29 4 0 18 -19 12
-30 -10 -16 -28 -8 -33 63 -39 57 -5 62 -7 65 -30 3 -25 1 -25 -72 -27 -59 -2
-79 1 -92 14 -15 15 -15 18 0 28 20 15 21 25 2 25 -8 0 -17 6 -19 13 -3 6 -6
1 -6 -12 -1 -18 -5 -22 -21 -18 -18 5 -19 4 -5 -16 22 -31 19 -37 -21 -37
l-36 0 4 42 c2 34 0 43 -14 46 -14 3 -18 -3 -18 -22 0 -15 -5 -25 -12 -23 -6
1 -14 -7 -16 -18 -9 -45 -42 -61 -42 -20 0 23 -4 25 -43 25 -24 0 -48 5 -54
11 -7 7 -15 2 -27 -15 -21 -33 -67 -36 -81 -5 -6 12 -24 27 -41 34 -29 12 -31
12 -27 -6 6 -23 -12 -25 -33 -4 -9 8 -28 15 -44 15 -42 0 -46 17 -14 51 19 20
23 28 11 24 -9 -4 -24 -2 -32 5 -11 9 -22 9 -47 1 -24 -9 -33 -8 -39 1 -7 10
-11 10 -21 0 -11 -11 -9 -17 11 -33 14 -11 38 -23 53 -26 21 -4 27 -10 23 -23
-4 -12 5 -22 35 -35 41 -19 53 -40 23 -41 -10 -1 -31 -5 -47 -9 -27 -7 -29 -6
-23 15 6 23 5 23 -20 -4 -18 -19 -33 -27 -49 -23 -16 3 -31 -5 -50 -24 -15
-16 -36 -29 -46 -29 -18 0 -18 1 2 28 11 15 23 43 27 62 6 33 5 34 -11 20 -10
-8 -22 -25 -28 -39 -7 -21 -11 -23 -19 -11 -9 12 -10 11 -6 -6 2 -12 1 -28 -4
-36 -6 -11 5 -21 51 -42 33 -16 60 -32 60 -37 0 -15 16 -10 41 12 21 18 21 19
3 10 -15 -7 -27 -6 -42 5 -25 18 -29 39 -6 30 9 -3 29 3 45 14 36 26 68 13 70
-28 1 -17 3 -20 6 -9 6 21 17 22 33 2 9 -11 34 -15 95 -15 62 0 86 -4 95 -15
10 -12 10 -19 2 -27 -15 -15 -15 -41 -1 -55 9 -9 16 -6 29 9 18 23 58 19 44
-4 -4 -6 9 -2 29 11 43 26 57 21 57 -20 0 -31 16 -37 51 -19 11 7 19 7 19 1 0
-5 3 -16 6 -25 5 -12 0 -16 -17 -16 -29 0 -54 -15 -55 -32 -1 -7 -2 -18 -3
-25 0 -6 -9 -14 -18 -17 -10 -2 -4 -4 12 -3 26 2 30 6 33 35 4 36 23 42 59 17
14 -10 23 -11 25 -4 6 19 58 -12 58 -34 0 -19 1 -19 19 -3 29 27 48 9 21 -19
-25 -26 -14 -39 24 -29 16 4 23 11 19 20 -3 9 0 14 8 12 8 -2 15 7 17 20 2 15
9 22 17 18 7 -2 16 2 19 10 3 8 -1 14 -9 14 -9 0 -12 6 -8 16 5 13 2 15 -17 9
-19 -6 -22 -4 -17 10 4 9 7 21 7 26 0 12 47 12 55 -1 3 -5 19 -10 36 -10 34 0
40 -24 10 -40 -13 -6 -17 -17 -14 -30 3 -11 0 -20 -6 -20 -6 0 -11 -4 -11 -10
0 -16 41 -21 96 -12 28 5 60 5 72 1 16 -6 22 -3 28 13 6 19 11 20 68 14 58 -7
60 -6 39 9 -28 19 -30 45 -5 45 10 0 27 7 38 15 25 19 54 19 54 -1 0 -12 5
-14 18 -9 52 22 59 19 66 -29 7 -46 26 -64 26 -25 0 11 9 34 21 51 25 35 15
53 -11 21 -10 -13 -21 -23 -24 -23 -3 0 -6 10 -6 23 0 14 12 30 35 45 19 12
35 27 35 34 0 6 9 3 20 -7 19 -17 20 -17 49 14 34 36 72 40 101 11 17 -17 21
-18 26 -5 4 8 3 22 0 31 -7 17 29 53 54 54 8 0 30 -9 49 -21 28 -17 32 -25 29
-49 -3 -21 0 -30 9 -30 9 0 13 13 13 40 0 22 -4 40 -10 40 -5 0 -10 18 -10 40
0 28 4 40 15 40 8 0 19 9 25 20 14 27 80 42 163 38 50 -2 72 1 75 10 2 6 10
12 18 12 26 0 13 -54 -13 -58 -51 -7 -13 -42 45 -42 40 0 43 2 31 17 -11 13
-11 17 -1 21 7 2 20 11 29 20 16 16 14 17 -18 22 -23 3 -35 11 -37 24 -4 16 0
18 34 11 34 -6 36 -5 24 10 -9 11 -27 15 -62 14 -58 -3 -81 18 -74 69 3 17 4
32 3 32 -1 0 -13 -6 -26 -13z m-262 -187 c27 0 27 -17 1 -25 -11 -3 -20 -15
-20 -26 0 -16 -7 -19 -42 -19 l-43 1 27 20 c22 16 27 26 22 46 -6 23 -5 24 14
14 11 -6 30 -11 41 -11z m-1441 -58 c3 -26 0 -32 -17 -32 -27 0 -33 14 -19 45
15 33 32 27 36 -13z m-76 11 c20 -18 24 -53 7 -53 -16 0 -38 31 -39 53 0 21 8
22 32 0z m868 -143 c0 -5 14 -10 30 -10 23 0 30 -5 30 -19 0 -26 -29 -49 -39
-32 -6 8 -20 10 -44 6 -47 -9 -61 15 -26 45 26 21 49 26 49 10z m140 -19 c0
-21 -47 -64 -61 -55 -11 6 16 60 33 67 23 9 28 7 28 -12z"/>
<path d="M1394 846 c-3 -17 -15 -43 -26 -58 -25 -36 -17 -49 25 -36 59 18 80
92 32 114 -22 11 -24 9 -31 -20z"/>
<path d="M1696 871 c-8 -12 17 -31 80 -62 58 -27 63 -26 38 9 -12 17 -13 26
-5 36 9 10 8 15 -5 20 -24 9 -102 7 -108 -3z"/>
<path d="M3946 861 c-3 -5 4 -11 15 -14 12 -3 18 -10 14 -16 -3 -6 -1 -11 4
-11 6 0 11 11 11 25 0 18 -5 25 -19 25 -11 0 -22 -4 -25 -9z"/>
<path d="M3301 826 l-23 -13 32 -7 c38 -7 45 -3 37 19 -8 18 -15 18 -46 1z"/>
<path d="M1529 804 c-7 -8 -21 -13 -31 -10 -16 4 -17 2 -7 -10 9 -11 7 -20 -7
-41 -10 -17 -19 -23 -22 -15 -2 8 -10 4 -23 -12 -17 -22 -18 -26 -3 -55 18
-36 44 -40 62 -10 10 16 19 19 44 14 30 -7 30 -7 22 26 -13 58 -10 72 13 78
25 7 20 22 -13 39 -18 9 -25 8 -35 -4z"/>
<path d="M3451 801 c-8 -14 -7 -20 4 -25 13 -4 35 20 35 38 0 14 -30 4 -39
-13z"/>
<path d="M1671 755 c-25 -13 -21 -19 22 -29 29 -7 36 6 14 29 -11 10 -18 10
-36 0z"/>
<path d="M3209 737 c15 -19 46 -23 56 -7 3 6 0 10 -7 10 -7 0 -24 3 -38 7 -22
6 -24 5 -11 -10z"/>
<path d="M1370 633 l0 -38 19 30 c12 21 15 32 7 37 -21 14 -26 8 -26 -29z"/>
<path d="M1624 645 c-16 -12 -16 -14 -3 -15 9 0 19 -9 22 -20 7 -26 27 -26 27
0 0 11 8 24 17 27 15 6 15 7 -3 14 -29 11 -38 10 -60 -6z"/>
<path d="M1556 611 c-6 -9 51 -37 59 -29 2 2 -9 12 -25 21 -16 10 -31 13 -34
8z"/>
<path d="M1396 553 c-11 -34 1 -60 34 -72 34 -11 40 -31 10 -31 -23 0 -27 -22
-7 -39 11 -8 20 -4 40 19 34 38 46 38 53 1 6 -27 9 -29 43 -24 44 7 43 6 35
27 -3 9 -10 13 -15 10 -5 -3 -25 4 -44 16 -25 15 -44 20 -62 15 -23 -5 -25 -4
-21 19 4 21 1 25 -21 28 -17 2 -27 11 -31 28 l-6 25 -8 -22z"/>
<path d="M2080 547 c0 -24 4 -27 32 -27 17 0 29 1 27 3 -2 1 -16 13 -31 26
l-28 24 0 -26z"/>
<path d="M2233 464 c-3 -8 -1 -20 6 -27 8 -8 11 -4 11 16 0 30 -7 35 -17 11z"/>
<path d="M2276 386 c3 -9 11 -16 16 -16 13 0 5 23 -10 28 -7 2 -10 -2 -6 -12z"/>
<path d="M1995 369 c-4 -6 -4 -27 0 -47 6 -32 5 -34 -9 -22 -9 7 -19 10 -23 7
-8 -8 15 -63 33 -78 11 -9 14 -7 14 10 0 12 6 24 13 27 10 3 11 17 3 59 -10
54 -18 66 -31 44z"/>
<path d="M1668 335 c-32 -27 -30 -62 2 -45 14 8 19 6 23 -8 3 -12 6 -10 12 11
4 16 4 37 -1 47 -9 18 -10 18 -36 -5z"/>
<path d="M2422 299 c-16 -25 -6 -45 14 -28 15 13 19 35 6 43 -4 2 -14 -4 -20
-15z"/>
<path d="M1885 298 c-2 -7 -5 -29 -7 -49 -3 -27 0 -35 9 -32 8 3 13 22 13 49
0 43 -7 57 -15 32z"/>
<path d="M2117 283 c-15 -14 -6 -31 18 -35 14 -3 25 -2 25 2 0 12 -36 40 -43
33z"/>
<path d="M2230 238 c0 -24 15 -37 30 -28 11 7 11 11 1 24 -16 19 -31 21 -31 4z"/>
</g>
</svg>
