<?xml version="1.0" standalone="no"?>
<!DOCTYPE svg PUBLIC "-//W3C//DTD SVG 20010904//EN"
 "http://www.w3.org/TR/2001/REC-SVG-20010904/DTD/svg10.dtd">
<svg version="1.0" xmlns="http://www.w3.org/2000/svg"
 width="780.000000pt" height="320.000000pt" viewBox="0 0 780.000000 320.000000"
 preserveAspectRatio="xMidYMid meet">

<g transform="translate(0.000000,320.000000) scale(0.100000,-0.100000)"
fill="#000000" stroke="none">
<path d="M1478 3083 c-16 -2 -28 -7 -28 -11 0 -4 -12 -8 -28 -8 -15 -1 -40 -7
-57 -13 -24 -10 -27 -14 -15 -23 12 -8 11 -9 -4 -4 -33 11 -139 -69 -182 -136
-25 -40 -30 -53 -15 -43 5 3 13 -4 16 -16 4 -11 9 -18 12 -16 2 3 -1 15 -7 27
-9 17 -9 24 0 30 6 4 12 11 13 16 1 5 7 7 12 6 6 -2 30 -5 55 -7 25 -1 37 -1
28 2 -9 2 -20 13 -23 24 -4 10 -11 19 -17 19 -5 0 -8 -7 -4 -15 3 -8 1 -15 -3
-15 -5 0 -11 6 -14 13 -6 15 17 50 26 40 4 -3 7 -1 7 5 0 7 5 12 10 12 6 0 8
-10 4 -24 -3 -13 -2 -26 3 -29 5 -3 8 10 8 29 -1 19 2 34 6 34 4 0 15 7 24 17
13 13 19 13 25 4 5 -9 10 -10 14 -3 3 6 17 9 31 6 26 -5 45 14 26 26 -9 5 -7
10 4 20 12 10 22 11 33 4 9 -6 51 -10 92 -11 70 0 72 0 25 7 -27 4 -61 6 -75
4 -18 -3 -15 0 10 10 19 8 53 15 75 15 28 0 34 -3 21 -8 -12 -4 5 -7 42 -7 34
1 62 5 62 9 0 5 4 6 9 2 5 -3 12 -1 16 5 6 10 -176 12 -237 3z m-273 -173 c3
-5 1 -10 -4 -10 -6 0 -11 5 -11 10 0 6 2 10 4 10 3 0 8 -4 11 -10z"/>
<path d="M1770 3079 c0 -5 -6 -7 -12 -4 -7 4 -4 -1 6 -9 11 -9 25 -16 32 -16
13 0 28 -46 19 -60 -4 -6 -1 -10 4 -10 18 0 14 -203 -5 -250 -14 -34 -14 -44
-4 -53 10 -10 12 -8 6 7 -4 12 -2 23 6 27 10 6 13 49 13 169 l0 160 -29 25
c-33 28 -36 29 -36 14z"/>
<path d="M1728 3043 c7 -3 16 -2 19 1 4 3 -2 6 -13 5 -11 0 -14 -3 -6 -6z"/>
<path d="M1764 3036 c-3 -8 -4 -21 -1 -28 4 -8 6 -6 6 5 1 9 5 17 10 17 5 0
12 -8 14 -17 4 -15 5 -15 6 -2 0 9 -6 22 -14 29 -12 10 -16 9 -21 -4z"/>
<path d="M1769 2898 c0 -51 -2 -105 -3 -120 -1 -16 2 -28 6 -28 4 0 8 54 10
120 2 66 0 120 -4 120 -5 0 -8 -42 -9 -92z"/>
<path d="M1310 2976 c0 -2 9 -6 20 -9 11 -3 18 -1 14 4 -5 9 -34 13 -34 5z"/>
<path d="M1362 2955 c-26 -33 -24 -38 12 -29 28 7 29 9 17 38 -7 17 -9 17 -29
-9z"/>
<path d="M1224 2828 c-5 -7 -3 -8 6 -3 8 5 11 3 8 -6 -3 -8 -12 -12 -19 -11
-8 2 -11 0 -7 -3 4 -4 3 -17 -3 -29 -8 -16 -4 -14 15 7 26 28 34 57 17 57 -6
0 -13 -5 -17 -12z"/>
<path d="M1106 2786 c-14 -36 -15 -50 -6 -61 6 -8 10 -22 7 -32 -3 -15 -6 -14
-15 7 -11 26 -11 28 -16 -193 -1 -21 5 -43 12 -49 9 -8 11 -7 6 7 -5 13 -4 16
5 11 7 -5 11 -17 8 -27 -3 -10 -1 -22 4 -25 13 -7 11 40 -2 53 -5 5 -13 52
-16 103 -5 83 -4 92 11 87 9 -4 16 -2 16 4 0 6 10 19 23 30 19 16 19 18 5 19
-10 0 -18 6 -18 13 0 9 -3 8 -9 -2 -18 -27 -23 10 -6 45 9 19 15 40 13 46 -2
6 -12 -10 -22 -36z"/>
<path d="M1135 2783 c2 -10 4 -21 4 -25 1 -5 8 -8 16 -8 8 0 15 -7 15 -16 0
-8 5 -12 10 -9 6 4 7 12 3 18 -4 7 -8 14 -9 17 -4 20 -18 40 -29 40 -7 0 -12
-8 -10 -17z"/>
<path d="M1790 2744 c-8 -20 -13 -25 -19 -15 -6 9 -8 3 -8 -15 0 -16 2 -23 5
-15 4 11 6 11 14 0 8 -11 9 -10 4 4 -3 9 -2 17 3 17 9 0 23 41 16 48 -2 3 -9
-8 -15 -24z"/>
<path d="M1260 2730 c0 -5 5 -10 10 -10 6 0 10 5 10 10 0 6 -4 10 -10 10 -5 0
-10 -4 -10 -10z"/>
<path d="M7380 2711 c-60 -14 -85 -28 -118 -65 -52 -60 -55 -140 -5 -152 35
-9 54 4 79 56 41 85 101 104 155 51 50 -51 31 -124 -50 -189 -84 -68 -199
-184 -211 -212 -17 -40 -9 -72 20 -87 35 -18 345 -18 380 0 33 17 37 51 8 71
-17 12 -49 16 -140 16 -67 0 -118 4 -118 9 0 5 30 36 68 68 137 118 178 165
191 221 16 63 3 112 -42 159 -44 47 -140 71 -217 54z"/>
<path d="M1760 2656 c-6 -16 -7 -32 -3 -35 11 -8 13 -41 2 -41 -5 0 -9 -7 -9
-15 0 -8 -5 -15 -10 -15 -17 0 -23 29 -10 45 9 10 9 15 1 15 -6 0 -11 -4 -11
-10 0 -5 -7 -10 -15 -10 -8 0 -12 -6 -9 -14 3 -8 0 -17 -6 -21 -17 -10 8 -35
28 -29 16 5 4 -7 -54 -54 -12 -9 -20 -21 -17 -25 7 -12 69 51 113 115 38 55
39 57 26 90 l-14 33 -12 -29z m24 -46 c-5 -5 -10 3 -11 18 -1 22 0 24 9 8 6
-10 6 -22 2 -26z m-64 -64 c0 -3 -4 -8 -10 -11 -5 -3 -10 -1 -10 4 0 6 5 11
10 11 6 0 10 -2 10 -4z"/>
<path d="M2011 2583 c5 -15 6 -30 1 -37 -5 -6 -12 -47 -15 -91 -4 -44 -11
-127 -16 -185 -5 -58 -12 -141 -16 -185 -3 -44 -12 -135 -18 -203 l-13 -123
85 3 86 3 1 40 c1 22 4 47 7 55 4 12 23 198 26 260 1 15 9 101 30 319 7 63 14
117 16 121 2 4 -1 14 -8 23 -8 11 -36 17 -94 20 l-82 5 10 -25z m83 -489 c3
-8 2 -12 -4 -9 -6 3 -10 10 -10 16 0 14 7 11 14 -7z"/>
<path d="M1606 2524 c-9 -23 -8 -24 19 -24 30 0 33 15 6 29 -15 8 -20 7 -25
-5z"/>
<path d="M1599 2468 c11 -15 11 -19 -3 -24 -10 -4 -15 -12 -12 -19 5 -15 -27
-28 -64 -27 -17 1 -21 -1 -12 -7 11 -7 10 -10 -3 -15 -22 -8 -27 -8 -21 3 9
14 -12 17 -129 18 -60 1 -101 -1 -91 -4 15 -4 16 -7 5 -14 -10 -6 -4 -9 19 -9
18 0 31 4 28 9 -3 5 21 9 54 8 33 0 60 -4 60 -9 0 -4 -7 -8 -16 -8 -8 0 -13
-4 -10 -8 2 -4 -46 -8 -109 -7 -90 0 -111 3 -103 13 8 9 7 11 -6 6 -9 -3 -16
-1 -16 5 0 6 5 11 12 11 6 0 9 2 6 5 -3 3 -13 3 -22 -1 -12 -5 -14 -10 -6 -19
7 -8 7 -16 2 -19 -6 -3 -13 1 -16 10 -3 8 -11 12 -17 8 -9 -5 -7 -11 6 -20 18
-13 18 -14 0 -34 -10 -11 -16 -22 -14 -25 3 -2 13 9 24 26 22 32 38 39 28 12
-5 -15 -3 -16 8 -5 9 8 49 12 126 12 73 0 113 4 113 11 0 6 8 8 19 4 33 -10
175 51 167 72 -3 7 -1 15 4 18 4 3 10 -1 13 -7 2 -7 7 -10 11 -7 3 3 -6 16
-21 30 -15 13 -21 16 -14 7z m-134 -88 c-3 -5 -12 -10 -18 -10 -7 0 -6 4 3 10
19 12 23 12 15 0z"/>
<path d="M1545 2460 c-3 -5 3 -10 15 -10 12 0 18 5 15 10 -3 6 -10 10 -15 10
-5 0 -12 -4 -15 -10z"/>
<path d="M1054 2428 c-43 -49 -48 -58 -31 -58 8 0 20 14 27 30 13 31 37 43 25
13 -5 -14 -3 -15 5 -6 8 7 9 17 3 27 -8 15 -11 14 -29 -6z"/>
<path d="M1520 2430 c0 -5 5 -10 10 -10 6 0 10 5 10 10 0 6 -4 10 -10 10 -5 0
-10 -4 -10 -10z"/>
<path d="M976 2314 c-14 -26 -26 -49 -26 -53 0 -3 -6 -17 -13 -31 -13 -26 -33
-92 -42 -145 -3 -16 -9 -45 -12 -63 -6 -34 12 -82 30 -82 5 0 4 7 -3 15 -17
20 -6 116 14 127 8 5 25 23 38 41 12 17 15 26 7 20 -12 -10 -18 -10 -27 -1 -9
9 -12 9 -12 1 0 -6 6 -13 13 -16 9 -3 9 -7 -2 -20 -35 -43 -34 28 1 91 10 18
15 38 12 44 -5 7 -2 9 8 6 11 -5 14 0 11 20 -3 24 -2 25 7 7 9 -17 9 -15 4 10
-3 16 -2 27 2 23 4 -4 13 4 21 18 15 31 16 34 4 34 -5 0 -21 -21 -35 -46z"/>
<path d="M1023 2338 c-4 -7 -8 -15 -9 -18 0 -3 -4 -13 -9 -23 -4 -10 -5 -21
-1 -24 3 -4 6 -1 6 5 0 7 4 12 9 12 5 0 7 -8 4 -19 -3 -10 -1 -21 4 -24 4 -3
8 19 8 49 0 59 0 60 -12 42z"/>
<path d="M1130 2268 c-11 -23 -18 -44 -15 -46 2 -3 10 8 17 24 6 16 18 37 26
47 10 11 11 17 4 17 -6 0 -21 -19 -32 -42z"/>
<path d="M1050 2291 c0 -19 22 -23 38 -7 15 15 14 16 -11 16 -15 0 -27 -4 -27
-9z"/>
<path d="M2164 2261 c-1 -20 -2 -52 -4 -71 -4 -65 -3 -66 62 -85 89 -25 153
-55 233 -109 38 -26 63 -41 57 -33 -9 10 -9 17 -2 20 6 3 5 4 -2 3 -14 -4 -68
24 -68 35 0 7 49 4 71 -5 13 -6 16 -2 12 17 -5 27 -42 41 -65 25 -9 -7 -8 -8
5 -4 12 4 17 2 15 -6 -6 -17 -68 -22 -64 -5 1 6 1 9 -1 5 -3 -5 -13 -3 -24 3
-11 5 -18 13 -15 17 2 4 -7 8 -21 8 -14 1 -32 12 -40 24 -10 14 -18 18 -22 11
-5 -8 -22 -6 -57 5 -58 20 -84 40 -39 31 28 -6 28 -6 7 5 -14 7 -20 17 -17 27
2 9 5 32 7 51 1 29 6 35 25 36 21 2 22 0 11 -15 -12 -14 -11 -15 5 -2 13 11
21 11 25 4 4 -7 14 -11 22 -11 33 2 51 -2 45 -11 -3 -5 -1 -12 4 -15 13 -8 26
13 15 24 -5 5 -47 19 -94 32 l-86 24 0 -35z"/>
<path d="M3512 2265 c-225 -49 -355 -232 -355 -495 0 -261 131 -443 351 -489
121 -25 291 -8 385 40 86 44 167 146 167 210 0 36 -43 73 -84 73 -27 0 -46
-12 -101 -62 -90 -82 -151 -112 -229 -112 -78 0 -131 25 -179 81 -38 43 -67
119 -67 171 l0 28 263 0 c382 0 402 8 402 164 0 81 -4 98 -31 156 -58 123
-147 196 -281 230 -88 23 -152 24 -241 5z m173 -166 c79 -22 155 -132 155
-226 l0 -23 -221 0 -222 0 7 43 c24 156 144 244 281 206z"/>
<path d="M4393 2265 c-63 -27 -63 -29 -63 -501 l0 -426 34 -34 c29 -29 41 -34
79 -34 53 0 91 26 106 73 5 17 12 133 14 257 5 226 16 319 44 375 43 85 95
104 204 75 95 -25 102 -25 138 6 58 49 48 129 -22 173 -47 29 -144 52 -187 45
-55 -10 -112 -48 -145 -98 -34 -52 -45 -57 -45 -21 0 48 -27 95 -64 110 -43
18 -52 18 -93 0z"/>
<path d="M5250 2273 c-89 -29 -90 -32 -90 -498 0 -428 3 -455 55 -489 32 -21
105 -20 130 2 50 42 50 39 55 341 l5 286 28 53 c47 89 142 135 229 112 106
-29 118 -71 118 -419 0 -151 5 -282 10 -303 15 -52 61 -88 114 -88 50 0 83 21
102 66 18 42 20 613 3 696 -35 169 -192 270 -371 238 -80 -15 -129 -41 -193
-101 -29 -27 -55 -49 -58 -49 -4 0 -7 16 -7 35 0 51 -26 94 -65 111 -36 15
-41 15 -65 7z"/>
<path d="M6631 2265 c-233 -53 -362 -229 -363 -495 0 -175 42 -291 140 -383
86 -80 191 -117 332 -117 204 0 381 102 426 244 20 64 14 98 -26 137 -55 56
-109 36 -178 -66 -60 -88 -110 -124 -183 -132 -82 -8 -136 11 -189 66 -66 67
-83 129 -78 274 3 101 6 117 33 166 52 94 135 141 230 128 64 -9 97 -29 147
-88 99 -118 93 -114 137 -114 31 0 47 7 71 30 92 88 -31 277 -218 336 -87 27
-199 33 -281 14z"/>
<path d="M1000 2260 c-9 -27 -4 -50 9 -50 14 0 14 -2 1 -10 -10 -7 -11 -10 -2
-10 16 0 28 30 15 39 -6 3 -13 13 -16 21 -3 8 -6 13 -7 10z"/>
<path d="M1050 2231 c0 -6 4 -13 10 -16 6 -3 7 1 4 9 -7 18 -14 21 -14 7z"/>
<path d="M1077 2229 c7 -7 15 -10 18 -7 3 3 -2 9 -12 12 -14 6 -15 5 -6 -5z"/>
<path d="M2365 2220 c3 -5 13 -10 21 -10 8 0 13 -4 9 -9 -3 -5 0 -13 6 -17 8
-4 9 -3 5 4 -4 7 -2 12 3 12 6 0 11 -4 11 -10 0 -5 8 -6 17 -3 12 5 15 2 11
-8 -4 -10 1 -15 13 -15 33 0 21 15 -34 41 -59 27 -72 30 -62 15z"/>
<path d="M2200 2198 c0 -19 2 -20 10 -8 13 19 13 30 0 30 -5 0 -10 -10 -10
-22z"/>
<path d="M2231 2209 c-1 -11 8 -16 30 -16 23 0 27 3 15 9 -9 5 -20 7 -25 3 -5
-3 -12 1 -14 7 -4 9 -6 8 -6 -3z"/>
<path d="M1095 2201 c-3 -6 -11 -8 -17 -5 -7 4 -8 -2 -3 -17 7 -21 6 -22 -8
-11 -13 11 -15 8 -10 -26 3 -22 0 -48 -6 -60 -6 -11 -13 -55 -16 -97 -3 -43
-6 -81 -7 -84 0 -3 1 -8 2 -11 4 -7 7 -140 3 -140 -1 0 -13 22 -26 50 -13 27
-26 47 -29 45 -3 -3 5 -27 18 -53 13 -26 24 -53 24 -60 0 -7 5 -10 11 -6 7 4
9 0 5 -12 -3 -11 -2 -32 3 -49 6 -21 10 27 10 151 1 192 10 267 42 341 18 42
21 70 4 44z"/>
<path d="M2350 2200 c0 -5 5 -10 11 -10 5 0 7 5 4 10 -3 6 -8 10 -11 10 -2 0
-4 -4 -4 -10z"/>
<path d="M952 2177 c2 -20 5 -24 16 -15 7 6 9 14 5 17 -4 4 -11 10 -16 15 -4
5 -6 -2 -5 -17z"/>
<path d="M2279 2171 c7 -5 11 -14 7 -19 -4 -6 3 -16 14 -22 13 -7 20 -7 20 0
0 5 -6 10 -12 10 -7 1 1 8 17 16 17 8 22 12 13 10 -10 -3 -20 -1 -23 4 -4 6
-16 10 -28 10 -16 0 -19 -3 -8 -9z"/>
<path d="M2406 2163 c-12 -12 -6 -33 9 -33 8 0 15 6 15 14 0 17 -14 28 -24 19z"/>
<path d="M2494 2161 c4 -6 1 -11 -6 -11 -7 0 -2 -7 10 -16 12 -8 27 -12 32 -9
13 8 5 22 -22 36 -15 8 -19 8 -14 0z"/>
<path d="M2236 2141 c-4 -5 3 -7 14 -4 23 6 26 13 6 13 -8 0 -17 -4 -20 -9z"/>
<path d="M2258 2123 c7 -3 16 -2 19 1 4 3 -2 6 -13 5 -11 0 -14 -3 -6 -6z"/>
<path d="M2440 2114 c0 -12 6 -15 26 -10 16 4 23 3 19 -3 -3 -7 0 -8 10 -5 12
5 13 9 4 20 -16 20 -59 18 -59 -2z"/>
<path d="M2560 2120 c13 -8 12 -10 -3 -10 -11 0 -15 -5 -11 -11 3 -6 0 -15 -7
-20 -11 -7 -11 -9 3 -9 9 0 18 -6 21 -12 4 -10 7 -10 18 0 11 10 10 12 -3 12
-10 0 -15 7 -13 18 2 9 4 19 4 21 1 3 8 -4 16 -15 8 -10 15 -14 15 -8 0 13
-32 44 -46 44 -5 0 -2 -5 6 -10z"/>
<path d="M991 2073 c0 -25 1 -26 9 -8 12 27 12 35 0 35 -5 0 -10 -12 -9 -27z"/>
<path d="M2510 2090 c-9 -6 -10 -10 -3 -10 6 0 15 5 18 10 8 12 4 12 -15 0z"/>
<path d="M2395 2070 c-3 -6 1 -7 9 -4 18 7 21 14 7 14 -6 0 -13 -4 -16 -10z"/>
<path d="M2630 2061 c0 -6 6 -11 13 -12 6 0 -1 -5 -16 -11 -22 -8 -26 -13 -16
-24 6 -8 19 -14 28 -13 12 0 11 2 -4 9 -19 8 -19 9 2 9 12 1 25 -4 28 -10 4
-6 12 -9 19 -6 14 5 44 -25 39 -40 -6 -16 27 -44 40 -36 13 8 -12 -28 -28 -39
-18 -13 3 -19 23 -7 37 23 31 43 -31 104 -33 33 -55 52 -47 43 9 -13 9 -18 1
-18 -6 0 -16 11 -21 24 -9 26 -30 44 -30 27z m120 -106 c7 -9 8 -15 2 -15 -5
0 -12 7 -16 15 -3 8 -4 15 -2 15 2 0 9 -7 16 -15z"/>
<path d="M996 2033 c-9 -9 -7 -33 3 -33 12 0 22 28 12 34 -5 3 -11 3 -15 -1z"/>
<path d="M916 2005 c-9 -26 -7 -32 5 -12 6 10 9 21 6 23 -2 3 -7 -2 -11 -11z"/>
<path d="M2545 2010 c-3 -5 -1 -10 4 -10 6 0 11 5 11 10 0 6 -2 10 -4 10 -3 0
-8 -4 -11 -10z"/>
<path d="M946 2002 c-6 -11 4 -24 32 -40 21 -12 23 -11 20 5 -2 10 -13 19 -26
21 -12 2 -20 8 -17 13 4 5 4 9 1 9 -3 0 -7 -4 -10 -8z"/>
<path d="M2555 1970 c-3 -5 1 -10 9 -10 9 0 16 5 16 10 0 6 -4 10 -9 10 -6 0
-13 -4 -16 -10z"/>
<path d="M2660 1973 c0 -14 15 -29 33 -36 22 -8 22 5 -1 26 -20 18 -32 22 -32
10z"/>
<path d="M931 1954 c10 -13 10 -17 -1 -24 -10 -6 -8 -13 9 -31 11 -12 21 -26
21 -31 0 -4 5 -8 11 -8 6 0 1 13 -10 29 -24 34 -16 50 9 18 l18 -22 -5 27 c-3
15 -14 30 -24 33 -10 4 -19 11 -19 16 0 5 -5 9 -11 9 -8 0 -7 -5 2 -16z"/>
<path d="M2585 1890 c42 -43 65 -58 77 -54 10 3 18 1 18 -5 0 -6 -3 -10 -7 -8
-13 4 -9 -17 6 -35 17 -20 41 -24 41 -7 0 5 -4 8 -9 5 -13 -9 -32 19 -25 38 3
9 11 13 18 9 7 -4 8 -2 1 5 -5 6 -25 12 -44 14 -19 2 -37 9 -39 17 -3 8 0 11
6 7 6 -3 14 -2 17 4 8 13 -14 42 -26 34 -5 -3 -9 0 -9 6 0 8 11 9 33 5 l32 -7
-23 17 c-20 15 -27 15 -48 4 -17 -9 -21 -15 -12 -20 7 -4 9 -11 5 -15 -4 -4
-18 5 -31 19 -14 15 -28 27 -33 27 -4 0 19 -27 52 -60z m55 2 c0 -4 -9 -8 -20
-9 -11 -1 -20 3 -20 8 0 6 5 7 10 4 6 -3 10 -1 10 5 0 6 5 8 10 5 6 -3 10 -9
10 -13z"/>
<path d="M2706 1908 c3 -5 10 -6 15 -3 13 9 11 12 -6 12 -8 0 -12 -4 -9 -9z"/>
<path d="M2799 1895 c-1 -5 -1 -13 0 -17 0 -5 -3 -8 -9 -8 -5 0 -10 -7 -10
-17 0 -14 2 -14 20 2 25 22 26 9 3 -18 -10 -11 -12 -17 -5 -13 8 5 12 -2 12
-27 0 -23 6 -37 17 -41 15 -6 32 8 33 27 0 5 5 5 11 2 13 -9 -24 62 -50 95
-12 14 -21 21 -22 15z m37 -72 c-1 -16 3 -34 8 -40 6 -9 3 -13 -9 -13 -13 0
-16 6 -11 24 3 14 1 28 -5 32 -8 4 -7 9 2 15 8 5 14 9 15 9 1 0 0 -12 0 -27z"/>
<path d="M2700 1876 c0 -7 8 -20 18 -27 14 -11 15 -11 5 0 -6 7 -9 20 -6 27 3
8 0 14 -6 14 -6 0 -11 -6 -11 -14z"/>
<path d="M2740 1825 c0 -8 4 -15 10 -15 5 0 7 7 4 15 -4 8 -8 15 -10 15 -2 0
-4 -7 -4 -15z"/>
<path d="M2721 1760 c-11 -6 -6 -24 28 -89 23 -44 50 -104 59 -133 13 -42 22
-54 40 -55 28 -3 28 -1 -7 36 -31 33 -45 68 -30 77 5 3 9 -1 9 -9 0 -8 7 -28
15 -43 10 -20 15 -24 15 -11 0 10 5 23 10 30 6 7 17 21 24 31 15 22 36 14 36
-15 0 -27 17 -24 22 6 3 13 2 24 -1 23 -19 -2 -31 3 -31 13 0 6 7 8 16 5 8 -3
13 -2 9 3 -3 5 0 11 5 13 6 2 -3 30 -21 67 -22 44 -34 59 -40 50 -5 -9 -2 -17
7 -22 9 -5 22 -24 30 -43 15 -35 19 -62 7 -51 -3 4 -12 2 -19 -4 -10 -8 -11
-5 -7 13 4 18 3 20 -6 8 -6 -8 -8 -22 -6 -31 5 -16 -28 -59 -45 -59 -18 0 -10
20 8 21 9 1 0 6 -20 11 -21 6 -38 15 -38 20 0 6 9 8 20 5 26 -7 42 15 32 42
-7 21 -8 21 -30 -9 -21 -28 -42 -33 -42 -9 0 6 4 7 10 4 6 -3 7 1 4 9 -3 9
-10 13 -15 10 -14 -9 -10 3 7 20 8 9 14 21 12 27 -3 8 -9 6 -20 -4 -17 -17
-38 -5 -38 21 0 12 3 12 15 2 8 -7 15 -8 15 -2 0 17 -25 31 -39 22z"/>
<path d="M2313 1734 c-7 -3 -10 -11 -7 -19 6 -14 -30 -99 -124 -296 -100 -208
-149 -316 -181 -389 -18 -41 -37 -82 -41 -91 -5 -9 -7 -27 -4 -40 2 -13 1 -18
-2 -11 -5 10 -9 10 -20 1 -8 -6 -14 -15 -14 -20 0 -4 -15 -41 -34 -81 -19 -40
-44 -95 -57 -123 -13 -27 -25 -53 -27 -57 -5 -10 149 -10 164 0 13 8 123 236
127 263 2 9 8 23 14 31 13 17 93 188 93 200 0 5 -5 6 -12 2 -7 -4 -8 -3 -4 5
4 6 11 9 16 6 4 -3 16 12 25 33 10 20 42 88 71 150 56 118 60 127 45 118 -5
-4 -7 4 -4 16 4 19 3 20 -6 8 -13 -18 -15 -1 -2 19 7 11 10 9 16 -8 8 -26 29
-17 22 10 -3 11 -1 16 5 13 9 -6 21 21 18 40 -1 5 2 12 7 15 17 11 65 123 59
137 -3 8 -2 13 3 10 12 -8 22 20 15 39 -4 8 -7 15 -8 16 -10 4 -144 7 -153 3z
m34 -30 c-3 -3 -12 -4 -19 -1 -8 3 -5 6 6 6 11 1 17 -2 13 -5z m80 -96 c-3 -8
-6 -5 -6 6 -1 11 2 17 5 13 3 -3 4 -12 1 -19z m-150 -30 c-3 -8 -6 -5 -6 6 -1
11 2 17 5 13 3 -3 4 -12 1 -19z m-97 -429 c-7 -11 -14 -18 -17 -15 -3 3 0 12
7 21 18 21 23 19 10 -6z m27 -11 c-3 -8 -6 -5 -6 6 -1 11 2 17 5 13 3 -3 4
-12 1 -19z m-146 -311 c-10 -9 -11 -8 -5 6 3 10 9 15 12 12 3 -3 0 -11 -7 -18z"/>
<path d="M2964 1568 c2 -27 0 -48 -5 -48 -5 0 -9 -18 -9 -40 0 -22 4 -40 10
-40 5 0 7 7 4 15 -4 8 -1 15 5 15 6 0 12 -16 12 -35 1 -19 3 -39 4 -45 1 -5 3
-17 4 -26 3 -36 18 -1 20 46 1 36 -2 49 -10 44 -8 -4 -9 3 -4 25 4 17 3 31 -2
31 -5 0 -10 10 -11 23 -1 12 -6 36 -12 52 -9 27 -10 25 -6 -17z m16 -73 c10
-12 10 -15 -4 -15 -9 0 -16 7 -16 15 0 8 2 15 4 15 2 0 9 -7 16 -15z"/>
<path d="M2837 1428 c10 -53 11 -267 1 -328 -7 -39 -6 -43 6 -28 7 10 17 14
21 10 5 -4 4 2 0 13 -12 28 -7 88 8 97 9 6 9 8 -2 8 -14 0 -12 31 5 74 5 14 4
17 -4 12 -27 -16 -10 24 18 44 l30 21 0 -81 c0 -52 -4 -79 -10 -75 -5 3 -10
-1 -10 -9 0 -24 27 -19 34 7 9 35 7 171 -4 187 -8 13 -10 12 -10 -2 0 -11 -8
-18 -20 -18 -11 0 -20 -6 -20 -12 -1 -26 -31 58 -32 89 -1 18 -5 33 -10 33 -6
0 -6 -17 -1 -42z"/>
<path d="M2860 1456 c0 -23 16 -27 17 -5 1 10 -2 19 -8 19 -5 0 -9 -6 -9 -14z"/>
<path d="M2927 1447 c-3 -8 -1 -20 4 -28 6 -10 9 -7 9 14 0 29 -5 35 -13 14z"/>
<path d="M2962 1395 c0 -16 2 -22 5 -12 2 9 2 23 0 30 -3 6 -5 -1 -5 -18z"/>
<path d="M2963 1270 c0 -69 0 -71 7 -25 4 28 4 61 0 75 -4 15 -7 -6 -7 -50z"/>
<path d="M2991 1324 c0 -11 3 -14 6 -6 3 7 2 16 -1 19 -3 4 -6 -2 -5 -13z"/>
<path d="M3007 1313 c-3 -16 -1 -32 4 -37 5 -6 9 4 9 27 0 44 -6 48 -13 10z"/>
<path d="M3000 1229 c0 -11 5 -17 10 -14 6 3 10 13 10 21 0 8 -4 14 -10 14 -5
0 -10 -9 -10 -21z"/>
<path d="M2981 1214 c0 -11 3 -14 6 -6 3 7 2 16 -1 19 -3 4 -6 -2 -5 -13z"/>
<path d="M3000 1141 c0 -34 -5 -65 -12 -73 -7 -7 -14 -31 -16 -53 -3 -49 -21
-72 -23 -30 -2 45 2 69 12 80 5 5 9 16 9 25 -1 10 -9 6 -26 -14 -15 -17 -21
-31 -16 -35 12 -7 -7 -81 -20 -81 -5 0 -8 -5 -8 -10 0 -6 8 -5 20 2 15 10 22
10 31 1 9 -9 7 -20 -9 -45 -18 -27 -22 -29 -23 -13 0 11 -3 14 -6 7 -3 -7 1
-19 7 -27 10 -12 10 -18 0 -30 -13 -15 -30 -12 -30 6 0 6 5 7 10 4 15 -9 12
11 -3 23 -10 8 -12 5 -12 -16 1 -15 5 -35 9 -45 6 -12 4 -23 -4 -30 -10 -10
-12 -8 -7 6 4 10 3 16 -2 13 -9 -6 -21 40 -21 80 0 14 -6 24 -14 24 -24 0 -30
-22 -11 -36 11 -9 19 -27 19 -48 1 -19 4 -32 7 -30 14 8 16 -36 3 -47 -8 -6
-14 -18 -14 -25 0 -7 -6 -12 -12 -10 -7 1 -10 1 -6 -1 4 -2 4 -12 1 -21 -8
-24 59 75 85 126 12 23 21 46 20 50 -1 4 6 21 15 39 9 18 16 36 15 40 -1 4 3
18 10 29 10 20 42 177 42 210 0 8 -4 14 -10 14 -6 0 -10 -26 -10 -59z"/>
<path d="M2965 1180 c-3 -5 -1 -10 4 -10 6 0 11 5 11 10 0 6 -2 10 -4 10 -3 0
-8 -4 -11 -10z"/>
<path d="M2870 1164 c0 -19 40 -54 63 -54 19 0 17 3 -13 22 -19 12 -38 27 -42
33 -5 7 -8 7 -8 -1z"/>
<path d="M3200 1130 c-12 -7 -15 -34 -15 -129 0 -66 4 -123 8 -128 15 -14 196
-16 213 -2 28 23 -11 39 -94 39 l-73 0 3 38 3 37 74 5 c47 3 76 10 79 18 3 9
-16 12 -72 12 -72 0 -76 1 -82 25 -12 48 -1 55 86 55 72 0 81 2 78 18 -3 14
-17 17 -98 20 -52 1 -102 -2 -110 -8z"/>
<path d="M4853 1133 c-10 -3 -13 -41 -13 -140 0 -134 0 -134 23 -131 19 3 22
10 25 61 l3 58 32 -3 c25 -2 40 -15 75 -60 59 -78 108 -78 68 0 -8 15 -23 36
-35 46 l-21 19 30 18 c59 36 49 110 -17 128 -39 11 -148 14 -170 4z m151 -49
c37 -36 10 -64 -61 -64 l-53 0 0 40 0 40 49 0 c32 0 55 -6 65 -16z"/>
<path d="M6612 1003 c3 -130 4 -138 23 -138 18 0 20 8 23 65 3 67 20 100 52
100 29 0 40 -23 40 -84 0 -69 9 -90 36 -84 17 3 19 13 19 84 0 98 -10 114 -71
114 -23 0 -46 -4 -49 -10 -14 -22 -24 -8 -27 38 -3 40 -6 47 -26 50 l-23 3 3
-138z"/>
<path d="M2870 1113 c0 -15 18 -35 23 -27 3 5 -1 15 -9 22 -8 7 -14 9 -14 5z"/>
<path d="M2856 1055 c-11 -8 -16 -15 -11 -15 5 0 4 -5 -3 -12 -15 -15 -16 -28
-2 -28 6 0 10 7 10 16 0 9 6 14 13 11 7 -3 12 4 12 19 0 13 0 24 0 24 0 0 -9
-7 -19 -15z"/>
<path d="M3480 959 c0 -98 0 -100 23 -97 20 3 22 9 25 68 3 68 20 100 52 100
29 0 39 -23 42 -95 3 -64 5 -70 26 -73 21 -3 22 -1 22 82 0 64 -4 88 -16 100
-18 19 -76 21 -107 5 -16 -9 -22 -9 -25 0 -2 6 -12 11 -23 11 -17 0 -19 -8
-19 -101z"/>
<path d="M3765 1035 c-20 -19 -25 -34 -25 -74 0 -43 4 -53 31 -75 22 -18 42
-26 70 -26 46 0 99 24 99 45 0 23 -15 25 -46 4 -37 -24 -66 -24 -87 -1 -31 34
-21 42 52 42 75 0 98 13 86 50 -13 41 -45 60 -102 60 -44 0 -59 -5 -78 -25z
m113 -17 c26 -26 13 -38 -38 -38 -54 0 -55 1 -40 31 12 22 59 26 78 7z"/>
<path d="M4012 963 c3 -90 5 -98 23 -98 18 0 21 8 25 67 6 76 15 91 62 92 22
1 33 6 33 16 0 19 -60 26 -80 10 -9 -8 -15 -8 -20 0 -3 5 -15 10 -26 10 -18 0
-20 -6 -17 -97z"/>
<path d="M4212 1037 c-75 -79 7 -209 102 -162 35 18 41 14 32 -20 -12 -46 -64
-52 -118 -13 -14 10 -20 10 -29 1 -35 -35 76 -76 144 -54 47 16 57 45 57 166
0 94 -2 105 -18 105 -10 0 -23 -5 -30 -12 -9 -9 -15 -9 -24 0 -21 21 -92 15
-116 -11z m122 -29 c44 -63 -26 -145 -78 -92 -9 8 -16 31 -16 49 0 61 62 89
94 43z"/>
<path d="M4456 1051 c-3 -5 12 -50 35 -100 45 -103 43 -131 -11 -131 -20 0
-30 -5 -30 -15 0 -21 45 -29 80 -15 24 10 37 31 80 133 33 78 47 124 41 130
-18 18 -38 -1 -61 -60 -13 -32 -26 -62 -30 -66 -4 -4 -19 24 -34 63 -21 52
-33 70 -46 70 -10 0 -21 -4 -24 -9z"/>
<path d="M5155 1035 c-35 -34 -35 -102 -1 -142 22 -25 31 -28 85 -28 65 0 99
19 88 49 -6 14 -10 14 -39 -4 -42 -25 -63 -25 -88 0 -33 33 -24 40 49 40 83 0
100 13 81 60 -16 40 -37 50 -100 50 -41 0 -56 -5 -75 -25z m119 -21 c27 -26
18 -34 -39 -34 -59 0 -60 1 -45 31 13 23 62 26 84 3z"/>
<path d="M5410 1040 c-38 -38 -16 -71 63 -90 53 -14 64 -24 47 -45 -18 -21
-57 -18 -81 6 -22 22 -49 19 -49 -5 0 -21 52 -46 95 -46 56 0 95 25 95 62 0
26 -26 45 -86 63 -60 17 -68 38 -17 43 18 2 35 -3 43 -12 7 -9 18 -16 26 -16
22 0 27 20 8 41 -25 27 -116 27 -144 -1z"/>
<path d="M5667 1040 c-52 -41 -44 -136 14 -165 51 -27 140 -13 153 22 11 28
-6 34 -38 13 -40 -24 -69 -26 -90 -4 -33 32 -20 43 57 46 l72 3 3 31 c2 25 -3
37 -24 53 -36 28 -111 29 -147 1z m111 -22 c26 -26 13 -38 -38 -38 -51 0 -64
12 -38 38 15 15 61 15 76 0z"/>
<path d="M5932 1053 c-22 -9 -33 -40 -18 -52 10 -8 19 -6 37 10 30 26 84 23
84 -5 0 -16 -12 -22 -59 -31 -82 -16 -107 -54 -66 -95 22 -22 61 -26 109 -9
24 8 35 8 46 -1 30 -25 40 -6 37 71 -5 105 -16 119 -95 118 -34 0 -68 -3 -75
-6z m110 -118 c-4 -26 -30 -45 -59 -45 -47 0 -38 54 10 63 38 8 52 2 49 -18z"/>
<path d="M6172 963 c3 -90 5 -98 23 -98 17 0 21 9 26 68 6 77 15 90 61 91 22
1 33 6 33 16 0 19 -61 26 -81 9 -10 -8 -14 -8 -14 0 0 6 -11 11 -25 11 l-26 0
3 -97z"/>
<path d="M6387 1049 c-27 -16 -48 -72 -41 -109 9 -44 56 -80 105 -80 56 0 99
24 99 55 0 28 -21 33 -40 9 -24 -28 -48 -36 -72 -23 -31 16 -38 28 -38 65 0
57 59 84 95 44 10 -11 26 -20 37 -20 26 0 23 35 -4 54 -26 18 -113 21 -141 5z"/>
<path d="M2812 1011 c-16 -51 -15 -59 3 -35 13 17 14 17 15 2 0 -12 5 -15 15
-11 13 5 13 8 -5 20 -15 10 -18 21 -14 39 10 39 -2 28 -14 -15z"/>
<path d="M2852 947 c-9 -11 -10 -17 -2 -22 15 -9 23 -1 18 21 -3 15 -4 16 -16
1z"/>
<path d="M2781 929 c-5 -13 -6 -28 -3 -34 3 -5 9 4 14 20 9 36 2 46 -11 14z"/>
<path d="M2926 935 c-3 -8 -1 -15 4 -15 6 0 10 7 10 15 0 8 -2 15 -4 15 -2 0
-6 -7 -10 -15z"/>
<path d="M2744 859 c-3 -6 -2 -15 4 -21 6 -6 11 -2 15 11 5 22 -7 29 -19 10z"/>
<path d="M2787 820 c6 -33 18 -49 36 -50 4 0 7 7 7 16 0 8 -4 13 -9 10 -5 -4
-7 3 -4 14 4 14 0 20 -10 20 -8 0 -18 6 -20 13 -3 6 -3 -4 0 -23z"/>
<path d="M2722 810 c-18 -29 -15 -38 4 -12 9 13 14 25 12 27 -2 2 -9 -5 -16
-15z"/>
<path d="M2840 765 c-7 -9 -20 -13 -29 -10 -11 3 -10 0 3 -10 17 -13 21 -13
34 6 17 24 10 36 -8 14z"/>
<path d="M2702 763 c-10 -4 -10 -8 -1 -19 14 -17 -2 -19 -19 -2 -9 9 -12 9
-12 0 0 -14 -108 -125 -160 -165 -19 -15 -30 -27 -23 -27 6 0 14 4 17 9 3 5
19 7 36 5 21 -3 30 1 30 11 0 7 9 17 21 20 11 4 18 9 16 12 -3 2 -15 0 -26 -7
-29 -15 -26 -6 8 29 16 17 31 25 33 19 3 -8 9 -8 24 1 15 9 16 11 2 9 -16 -3
-18 0 -18 20 0 4 9 8 20 9 11 1 20 -2 20 -7 0 -5 6 -7 14 -4 8 3 12 13 9 25
-4 13 0 19 12 19 12 0 15 5 10 21 -5 15 -4 19 4 15 6 -4 11 -2 11 3 0 12 -7
13 -28 4z m-148 -181 c2 -4 -5 -9 -17 -9 -17 -2 -19 0 -7 7 18 12 18 12 24 2z"/>
<path d="M3194 747 c-2 -7 -3 -69 -2 -138 3 -116 4 -124 23 -124 18 0 20 8 25
94 l5 94 65 -92 c65 -92 102 -119 121 -90 5 8 8 70 7 139 -3 121 -4 125 -25
128 -22 3 -22 0 -25 -95 l-3 -98 -72 98 c-51 67 -79 97 -93 97 -11 0 -23 -6
-26 -13z"/>
<path d="M4504 750 c-11 -4 -33 -23 -48 -41 -26 -30 -28 -39 -24 -96 3 -55 8
-68 35 -95 26 -25 42 -32 86 -36 81 -6 137 29 137 87 0 32 -37 27 -54 -8 -25
-48 -78 -56 -122 -18 -36 31 -40 101 -8 144 32 42 86 44 123 4 37 -40 64 -41
59 -4 -6 56 -112 92 -184 63z"/>
<path d="M5227 754 c-4 -4 -7 -65 -7 -136 0 -110 2 -130 16 -135 10 -4 22 0
28 9 10 14 14 14 31 2 25 -18 75 -18 102 1 33 23 48 79 34 126 -7 21 -20 43
-31 49 -24 13 -90 13 -110 0 -12 -8 -16 -1 -20 38 -5 45 -24 65 -43 46z m137
-120 c19 -18 21 -87 4 -101 -30 -23 -49 -23 -74 2 -28 28 -31 61 -8 93 18 26
56 29 78 6z"/>
<path d="M6207 741 c-63 -41 -81 -111 -48 -185 25 -58 70 -81 145 -73 40 3 55
11 78 36 54 61 21 96 -35 37 -79 -83 -179 -2 -137 110 24 61 88 73 135 24 31
-33 53 -38 61 -16 25 64 -127 115 -199 67z"/>
<path d="M7033 753 c-7 -3 -13 -20 -13 -39 0 -24 -5 -34 -15 -34 -8 0 -15 -6
-15 -14 0 -8 7 -16 15 -20 11 -4 15 -22 15 -74 0 -81 10 -95 67 -90 27 2 39 8
41 21 3 13 -3 17 -27 17 l-31 0 0 65 c0 58 2 65 20 65 11 0 20 7 20 15 0 8 -9
15 -20 15 -15 0 -20 7 -20 29 0 31 -17 51 -37 44z"/>
<path d="M2760 680 c-4 -35 -9 -44 -21 -42 -14 2 -16 -6 -14 -43 l3 -45 -37 5
c-34 4 -35 4 -12 -9 14 -8 19 -16 13 -20 -6 -3 -13 -2 -17 4 -3 5 -11 10 -17
10 -7 0 -7 -5 1 -14 9 -11 7 -18 -13 -34 -14 -10 -22 -22 -19 -26 3 -3 13 1
22 9 9 8 33 29 53 47 66 59 150 174 88 121 -11 -10 -20 -24 -20 -32 0 -11 -3
-12 -12 -3 -8 8 -8 15 1 26 7 8 11 32 9 53 l-4 38 -4 -45z m-5 -80 c3 -5 -1
-10 -10 -10 -9 0 -13 5 -10 10 3 6 8 10 10 10 2 0 7 -4 10 -10z"/>
<path d="M2810 681 c0 -6 4 -13 10 -16 6 -3 7 1 4 9 -7 18 -14 21 -14 7z"/>
<path d="M3574 680 c-43 -9 -54 -18 -54 -41 0 -23 17 -24 44 -4 24 18 68 19
84 3 21 -21 14 -26 -45 -38 -32 -7 -66 -16 -75 -21 -23 -12 -24 -62 -2 -83 19
-20 84 -21 110 -2 16 13 21 12 36 -1 24 -22 52 -9 44 20 -3 12 -6 45 -6 73 0
35 -6 58 -17 72 -20 22 -73 32 -119 22z m86 -115 c0 -23 -37 -55 -64 -55 -47
0 -41 54 7 63 44 9 57 7 57 -8z"/>
<path d="M4816 680 c-37 -7 -56 -22 -56 -47 0 -18 35 -16 50 2 11 13 80 22 80
11 0 -2 3 -11 6 -19 4 -12 -8 -18 -53 -28 -66 -14 -93 -32 -93 -64 0 -47 66
-70 124 -44 20 9 29 9 41 -1 32 -27 42 -6 37 77 -6 106 -36 131 -136 113z m84
-117 c0 -43 -64 -70 -90 -38 -22 26 9 49 73 54 10 0 17 -6 17 -16z"/>
<path d="M6540 680 c-47 -11 -70 -42 -70 -97 0 -62 40 -103 100 -103 47 0 100
24 100 45 0 19 -29 19 -54 0 -27 -20 -59 -19 -79 3 -31 34 -21 42 52 42 81 0
97 11 81 57 -16 45 -69 67 -130 53z m78 -57 c14 -23 14 -23 -42 -23 -60 0 -62
1 -45 31 14 27 66 22 87 -8z"/>
<path d="M7238 683 c-73 -11 -105 -111 -54 -170 22 -25 31 -28 84 -28 45 0 65
5 81 19 12 11 21 23 21 28 0 13 -34 9 -56 -7 -27 -20 -61 -18 -84 5 -32 32
-24 40 44 40 80 0 96 6 96 37 0 26 -41 73 -64 73 -8 0 -20 2 -28 3 -7 2 -25 2
-40 0z m72 -54 c15 -28 11 -31 -49 -27 -51 3 -51 3 -36 26 21 29 70 30 85 1z"/>
<path d="M3782 583 c3 -90 5 -98 23 -98 17 0 21 8 25 66 6 75 22 101 59 97 24
-3 26 -7 29 -63 3 -91 9 -107 35 -103 20 3 22 9 25 77 4 96 -11 121 -71 121
-24 0 -48 -5 -55 -12 -9 -9 -15 -9 -24 0 -7 7 -20 12 -30 12 -17 0 -18 -9 -16
-97z"/>
<path d="M4065 655 c-23 -22 -30 -49 -26 -100 1 -11 15 -32 32 -47 59 -56 167
-24 183 52 7 38 -15 94 -42 109 -12 6 -44 11 -72 11 -41 0 -56 -5 -75 -25z
m119 -21 c38 -37 10 -124 -40 -124 -25 0 -54 39 -54 72 0 58 57 89 94 52z"/>
<path d="M5027 673 c-9 -8 -9 -156 -1 -177 3 -9 14 -16 24 -16 14 0 18 12 23
66 8 81 26 106 69 97 26 -5 29 -3 26 13 -4 23 -61 32 -84 13 -10 -8 -14 -8
-14 0 0 12 -32 15 -43 4z"/>
<path d="M5527 669 c-9 -5 -24 -24 -33 -41 -52 -101 86 -198 175 -122 27 22
31 32 31 75 0 71 -29 99 -102 99 -29 0 -61 -5 -71 -11z m107 -38 c27 -29 18
-91 -15 -110 -24 -13 -29 -13 -53 2 -21 14 -26 25 -26 57 0 64 55 94 94 51z"/>
<path d="M5768 668 c-3 -11 -2 -133 1 -175 1 -7 10 -13 21 -13 17 0 20 7 21
53 1 75 11 100 42 111 40 14 51 -4 57 -87 4 -64 7 -72 25 -72 18 0 20 8 23 79
4 96 -9 116 -73 116 -22 0 -47 -6 -54 -12 -11 -10 -14 -10 -18 0 -3 6 -13 12
-23 12 -10 0 -20 -6 -22 -12z"/>
<path d="M6742 583 c3 -90 5 -98 23 -98 18 0 20 8 23 65 4 74 21 103 61 98 24
-3 26 -7 29 -63 1 -33 4 -70 7 -82 8 -32 43 -30 51 2 10 38 0 141 -15 159 -15
18 -82 22 -111 6 -13 -7 -21 -7 -25 0 -3 5 -15 10 -26 10 -18 0 -20 -6 -17
-97z"/>
<path d="M7434 667 c-3 -8 -4 -52 -2 -98 3 -78 4 -84 26 -87 20 -3 22 0 22 47
0 53 14 101 33 113 6 4 24 4 40 1 25 -5 28 -3 25 13 -4 23 -61 32 -84 13 -10
-8 -14 -8 -14 0 0 16 -40 14 -46 -2z"/>
<path d="M2705 660 c3 -5 8 -10 11 -10 2 0 4 5 4 10 0 6 -5 10 -11 10 -5 0 -7
-4 -4 -10z"/>
<path d="M2623 594 c-3 -8 -11 -14 -19 -14 -8 0 -14 -5 -14 -11 0 -5 4 -7 10
-4 5 3 20 1 32 -6 19 -9 21 -9 11 2 -17 17 -17 37 -1 21 17 -17 30 -15 26 5
-4 20 -37 26 -45 7z"/>
<path d="M2519 535 c-9 -9 -25 -17 -37 -18 -11 0 -19 -5 -16 -9 3 -4 11 -5 20
-1 9 3 14 0 12 -8 -2 -7 6 -15 17 -17 16 -3 18 -1 8 9 -19 19 -16 26 12 33 14
4 23 11 20 16 -9 14 -18 12 -36 -5z"/>
<path d="M2410 510 c-14 -11 -30 -20 -36 -20 -16 0 -62 -39 -47 -40 6 0 15 5
18 10 3 6 13 10 21 10 9 0 12 -5 8 -12 -4 -7 -3 -8 4 -4 7 4 12 14 12 22 0 9
5 12 12 8 7 -4 8 -3 4 5 -10 15 46 3 56 -13 4 -6 10 -7 15 -3 10 10 -16 27
-41 27 -20 0 -20 0 0 15 10 8 15 14 9 14 -5 1 -21 -8 -35 -19z"/>
<path d="M2563 446 c1 -19 5 -32 9 -30 5 3 6 9 3 14 -3 5 0 12 6 16 8 4 7 9
-2 16 -11 8 -11 9 1 5 8 -2 14 -12 14 -21 -2 -14 1 -14 13 -4 13 10 13 14 -3
25 -30 22 -42 15 -41 -21z"/>
<path d="M2275 444 c-19 -8 -21 -12 -8 -8 16 4 22 1 20 -8 -2 -7 -2 -10 0 -5
9 15 32 7 27 -10 -5 -16 -4 -16 6 1 10 14 9 21 -1 31 -12 11 -19 11 -44 -1z"/>
<path d="M2486 453 c-4 -4 -17 -8 -28 -8 -33 0 -32 -21 0 -38 27 -13 29 -13
25 4 -4 13 0 19 11 19 9 0 16 7 16 15 0 16 -12 20 -24 8z"/>
<path d="M2233 414 c15 -8 27 -19 27 -24 0 -6 15 -10 33 -9 26 0 28 2 12 8
-11 5 -23 7 -27 4 -5 -2 -8 2 -8 10 0 8 -10 17 -22 21 -38 10 -44 6 -15 -10z"/>
<path d="M2150 410 c-14 -4 -42 -8 -62 -9 -21 -1 -38 -5 -38 -9 0 -10 118 6
140 19 13 7 13 8 0 8 -8 -1 -26 -5 -40 -9z"/>
<path d="M2385 400 c17 -11 37 -20 45 -20 8 0 -2 9 -23 20 -48 26 -61 26 -22
0z"/>
<path d="M2525 400 c3 -5 -1 -10 -9 -10 -8 0 -22 -7 -30 -16 -9 -8 -16 -13
-16 -10 0 3 -23 -8 -51 -24 -54 -32 -82 -31 -53 1 12 14 14 23 7 30 -8 8 -15
5 -24 -8 -9 -12 -27 -20 -49 -20 -62 -1 -62 -1 -50 -23 6 -11 15 -20 21 -20 6
0 8 4 4 9 -3 5 -1 12 5 16 5 3 10 3 11 -2 0 -4 2 -16 4 -26 3 -15 -1 -18 -17
-14 -15 4 -18 3 -10 -5 14 -14 75 8 182 64 86 46 115 68 87 68 -10 0 -15 -4
-12 -10z m-205 -70 c0 -5 7 -10 15 -10 22 0 18 -17 -5 -23 -11 -3 -20 -1 -20
3 0 5 -3 15 -6 24 -3 9 -1 16 5 16 6 0 11 -4 11 -10z"/>
<path d="M2200 372 c0 -16 42 -12 47 4 2 7 -6 11 -22 10 -14 0 -25 -7 -25 -14z"/>
<path d="M2058 366 c-10 -7 -15 -16 -11 -19 10 -10 25 -8 19 2 -4 5 0 11 6 14
7 2 11 7 8 10 -3 3 -13 0 -22 -7z"/>
<path d="M2089 354 c-9 -11 -6 -14 19 -14 38 0 50 16 17 22 -14 3 -30 -1 -36
-8z"/>
<path d="M2400 360 c0 -13 11 -13 30 0 12 8 11 10 -7 10 -13 0 -23 -4 -23 -10z"/>
<path d="M2067 316 c-3 -8 -3 -24 0 -37 4 -15 3 -20 -5 -15 -16 10 -15 -7 1
-23 10 -11 8 -12 -10 -7 -12 4 -24 2 -28 -4 -8 -13 4 -13 108 5 131 23 145 31
72 41 -33 4 -76 8 -95 8 -30 1 -35 4 -33 24 3 25 -2 29 -10 8z m98 -61 c-59
-17 -95 -19 -95 -6 0 13 26 19 90 19 l55 1 -50 -14z"/>
<path d="M2180 320 c-21 -7 -18 -8 18 -9 26 -1 41 3 37 9 -7 11 -19 11 -55 0z"/>
<path d="M2168 293 c7 -3 16 -2 19 1 4 3 -2 6 -13 5 -11 0 -14 -3 -6 -6z"/>
<path d="M2225 290 c4 -6 11 -8 16 -5 14 9 11 15 -7 15 -8 0 -12 -5 -9 -10z"/>
</g>
</svg>
